<mxfile host="app.diagrams.net" modified="2022-09-27T05:28:30.550Z" agent="5.0 (Windows NT 10.0; Win64; x64) AppleWebKit/537.36 (KHTML, like Gecko) Chrome/102.0.5005.167 YaBrowser/22.7.3.787 Yowser/2.5 Safari/537.36" etag="SYOz5O4gZHUYlv3AOdRK" version="20.2.8" type="github" pages="6">
  <diagram id="x4ZZpqSOV8TmcjcXQ8ll" name="308">
    <mxGraphModel dx="1422" dy="799" grid="1" gridSize="10" guides="1" tooltips="1" connect="1" arrows="1" fold="1" page="1" pageScale="1" pageWidth="1654" pageHeight="1169" math="0" shadow="0">
      <root>
        <mxCell id="0" />
        <mxCell id="1" parent="0" />
        <mxCell id="8ONhAisGdDd2JaunFxpt-4" value="" style="rounded=0;whiteSpace=wrap;html=1;fillColor=#dae8fc;strokeColor=#6c8ebf;" parent="1" vertex="1">
          <mxGeometry x="480" y="360" width="160" height="100" as="geometry" />
        </mxCell>
        <mxCell id="IudF3s8lYzi0-bGoKkTg-24" value="" style="shape=mxgraph.cisco.servers.standard_host;html=1;pointerEvents=1;dashed=0;fillColor=#036897;strokeColor=#ffffff;strokeWidth=2;verticalLabelPosition=bottom;verticalAlign=top;align=center;outlineConnect=0;rounded=0;" parent="1" vertex="1">
          <mxGeometry x="680" y="690" width="160" height="30" as="geometry" />
        </mxCell>
        <mxCell id="IudF3s8lYzi0-bGoKkTg-25" value="" style="shape=mxgraph.cisco.servers.standard_host;html=1;pointerEvents=1;dashed=0;fillColor=#036897;strokeColor=#ffffff;strokeWidth=2;verticalLabelPosition=bottom;verticalAlign=top;align=center;outlineConnect=0;rounded=0;" parent="1" vertex="1">
          <mxGeometry x="680" y="730" width="160" height="30" as="geometry" />
        </mxCell>
        <mxCell id="ph0teE2vvbvPhY-EjFQS-2" value="" style="shape=mxgraph.cisco.servers.standard_host;html=1;pointerEvents=1;dashed=0;fillColor=#036897;strokeColor=#ffffff;strokeWidth=2;verticalLabelPosition=bottom;verticalAlign=top;align=center;outlineConnect=0;rounded=0;" parent="1" vertex="1">
          <mxGeometry x="680" y="610" width="160" height="30" as="geometry" />
        </mxCell>
        <mxCell id="ph0teE2vvbvPhY-EjFQS-3" value="" style="shape=mxgraph.cisco.servers.standard_host;html=1;pointerEvents=1;dashed=0;fillColor=#036897;strokeColor=#ffffff;strokeWidth=2;verticalLabelPosition=bottom;verticalAlign=top;align=center;outlineConnect=0;rounded=0;" parent="1" vertex="1">
          <mxGeometry x="680" y="650" width="160" height="30" as="geometry" />
        </mxCell>
        <mxCell id="ph0teE2vvbvPhY-EjFQS-6" value="" style="shape=mxgraph.cisco.servers.standard_host;html=1;pointerEvents=1;dashed=0;fillColor=#036897;strokeColor=#ffffff;strokeWidth=2;verticalLabelPosition=bottom;verticalAlign=top;align=center;outlineConnect=0;rounded=0;" parent="1" vertex="1">
          <mxGeometry x="680" y="530" width="160" height="30" as="geometry" />
        </mxCell>
        <mxCell id="ph0teE2vvbvPhY-EjFQS-7" value="" style="shape=mxgraph.cisco.servers.standard_host;html=1;pointerEvents=1;dashed=0;fillColor=#036897;strokeColor=#ffffff;strokeWidth=2;verticalLabelPosition=bottom;verticalAlign=top;align=center;outlineConnect=0;rounded=0;" parent="1" vertex="1">
          <mxGeometry x="680" y="570" width="160" height="30" as="geometry" />
        </mxCell>
        <mxCell id="ph0teE2vvbvPhY-EjFQS-8" value="" style="shape=mxgraph.cisco.servers.standard_host;html=1;pointerEvents=1;dashed=0;fillColor=#036897;strokeColor=#ffffff;strokeWidth=2;verticalLabelPosition=bottom;verticalAlign=top;align=center;outlineConnect=0;rounded=0;" parent="1" vertex="1">
          <mxGeometry x="680" y="450" width="160" height="30" as="geometry" />
        </mxCell>
        <mxCell id="ph0teE2vvbvPhY-EjFQS-9" value="" style="shape=mxgraph.cisco.servers.standard_host;html=1;pointerEvents=1;dashed=0;fillColor=#036897;strokeColor=#ffffff;strokeWidth=2;verticalLabelPosition=bottom;verticalAlign=top;align=center;outlineConnect=0;rounded=0;" parent="1" vertex="1">
          <mxGeometry x="680" y="490" width="160" height="30" as="geometry" />
        </mxCell>
        <mxCell id="ph0teE2vvbvPhY-EjFQS-11" value="" style="shape=mxgraph.cisco.servers.standard_host;html=1;pointerEvents=1;dashed=0;fillColor=#036897;strokeColor=#ffffff;strokeWidth=2;verticalLabelPosition=bottom;verticalAlign=top;align=center;outlineConnect=0;rounded=0;" parent="1" vertex="1">
          <mxGeometry x="480" y="690" width="160" height="30" as="geometry" />
        </mxCell>
        <mxCell id="ph0teE2vvbvPhY-EjFQS-12" value="" style="shape=mxgraph.cisco.servers.standard_host;html=1;pointerEvents=1;dashed=0;fillColor=#036897;strokeColor=#ffffff;strokeWidth=2;verticalLabelPosition=bottom;verticalAlign=top;align=center;outlineConnect=0;rounded=0;" parent="1" vertex="1">
          <mxGeometry x="480" y="730" width="160" height="30" as="geometry" />
        </mxCell>
        <mxCell id="ph0teE2vvbvPhY-EjFQS-13" value="" style="shape=mxgraph.cisco.servers.standard_host;html=1;pointerEvents=1;dashed=0;fillColor=#036897;strokeColor=#ffffff;strokeWidth=2;verticalLabelPosition=bottom;verticalAlign=top;align=center;outlineConnect=0;rounded=0;" parent="1" vertex="1">
          <mxGeometry x="480" y="610" width="160" height="30" as="geometry" />
        </mxCell>
        <mxCell id="ph0teE2vvbvPhY-EjFQS-14" value="" style="shape=mxgraph.cisco.servers.standard_host;html=1;pointerEvents=1;dashed=0;fillColor=#036897;strokeColor=#ffffff;strokeWidth=2;verticalLabelPosition=bottom;verticalAlign=top;align=center;outlineConnect=0;rounded=0;" parent="1" vertex="1">
          <mxGeometry x="480" y="650" width="160" height="30" as="geometry" />
        </mxCell>
        <mxCell id="ph0teE2vvbvPhY-EjFQS-15" value="" style="shape=mxgraph.cisco.servers.standard_host;html=1;pointerEvents=1;dashed=0;fillColor=#036897;strokeColor=#ffffff;strokeWidth=2;verticalLabelPosition=bottom;verticalAlign=top;align=center;outlineConnect=0;rounded=0;" parent="1" vertex="1">
          <mxGeometry x="480" y="530" width="160" height="30" as="geometry" />
        </mxCell>
        <mxCell id="ph0teE2vvbvPhY-EjFQS-16" value="" style="shape=mxgraph.cisco.servers.standard_host;html=1;pointerEvents=1;dashed=0;fillColor=#036897;strokeColor=#ffffff;strokeWidth=2;verticalLabelPosition=bottom;verticalAlign=top;align=center;outlineConnect=0;rounded=0;" parent="1" vertex="1">
          <mxGeometry x="480" y="570" width="160" height="30" as="geometry" />
        </mxCell>
        <mxCell id="8ONhAisGdDd2JaunFxpt-7" style="edgeStyle=orthogonalEdgeStyle;rounded=0;orthogonalLoop=1;jettySize=auto;html=1;exitX=0.5;exitY=1;exitDx=0;exitDy=0;exitPerimeter=0;entryX=0.5;entryY=0;entryDx=0;entryDy=0;entryPerimeter=0;endArrow=none;endFill=0;" parent="1" source="ph0teE2vvbvPhY-EjFQS-17" target="az1BL_j5DGh5pGOqvzN_-2" edge="1">
          <mxGeometry relative="1" as="geometry">
            <Array as="points">
              <mxPoint x="559" y="410" />
              <mxPoint x="529" y="410" />
            </Array>
          </mxGeometry>
        </mxCell>
        <mxCell id="8ONhAisGdDd2JaunFxpt-12" style="edgeStyle=orthogonalEdgeStyle;rounded=0;orthogonalLoop=1;jettySize=auto;html=1;exitX=1;exitY=0.5;exitDx=0;exitDy=0;exitPerimeter=0;entryX=0.5;entryY=0;entryDx=0;entryDy=0;entryPerimeter=0;endArrow=none;endFill=0;" parent="1" source="ph0teE2vvbvPhY-EjFQS-17" target="7tGOULQvT-3jEKbnkFim-3" edge="1">
          <mxGeometry relative="1" as="geometry">
            <Array as="points">
              <mxPoint x="760" y="385" />
            </Array>
          </mxGeometry>
        </mxCell>
        <mxCell id="8ONhAisGdDd2JaunFxpt-41" style="edgeStyle=orthogonalEdgeStyle;rounded=0;orthogonalLoop=1;jettySize=auto;html=1;exitX=1;exitY=0.5;exitDx=0;exitDy=0;exitPerimeter=0;endArrow=none;endFill=0;" parent="1" source="ph0teE2vvbvPhY-EjFQS-17" target="8ONhAisGdDd2JaunFxpt-38" edge="1">
          <mxGeometry relative="1" as="geometry">
            <Array as="points">
              <mxPoint x="1090" y="385" />
              <mxPoint x="1090" y="385" />
            </Array>
          </mxGeometry>
        </mxCell>
        <mxCell id="ph0teE2vvbvPhY-EjFQS-17" value="" style="shape=mxgraph.cisco.servers.standard_host;html=1;pointerEvents=1;dashed=0;fillColor=#036897;strokeColor=#ffffff;strokeWidth=2;verticalLabelPosition=bottom;verticalAlign=top;align=center;outlineConnect=0;rounded=0;" parent="1" vertex="1">
          <mxGeometry x="479" y="370" width="160" height="30" as="geometry" />
        </mxCell>
        <mxCell id="ph0teE2vvbvPhY-EjFQS-18" value="" style="shape=mxgraph.cisco.servers.standard_host;html=1;pointerEvents=1;dashed=0;fillColor=#036897;strokeColor=#ffffff;strokeWidth=2;verticalLabelPosition=bottom;verticalAlign=top;align=center;outlineConnect=0;rounded=0;" parent="1" vertex="1">
          <mxGeometry x="480" y="490" width="160" height="30" as="geometry" />
        </mxCell>
        <mxCell id="8ONhAisGdDd2JaunFxpt-14" style="edgeStyle=orthogonalEdgeStyle;rounded=0;orthogonalLoop=1;jettySize=auto;html=1;exitX=0;exitY=0.5;exitDx=0;exitDy=0;exitPerimeter=0;entryX=0;entryY=0.5;entryDx=0;entryDy=0;entryPerimeter=0;endArrow=none;endFill=0;" parent="1" source="7tGOULQvT-3jEKbnkFim-3" target="ph0teE2vvbvPhY-EjFQS-8" edge="1">
          <mxGeometry relative="1" as="geometry" />
        </mxCell>
        <mxCell id="8ONhAisGdDd2JaunFxpt-15" style="edgeStyle=orthogonalEdgeStyle;rounded=0;orthogonalLoop=1;jettySize=auto;html=1;exitX=0;exitY=0.5;exitDx=0;exitDy=0;exitPerimeter=0;entryX=1;entryY=0.5;entryDx=0;entryDy=0;entryPerimeter=0;endArrow=none;endFill=0;" parent="1" source="7tGOULQvT-3jEKbnkFim-3" target="ph0teE2vvbvPhY-EjFQS-18" edge="1">
          <mxGeometry relative="1" as="geometry" />
        </mxCell>
        <mxCell id="8ONhAisGdDd2JaunFxpt-16" style="edgeStyle=orthogonalEdgeStyle;rounded=0;orthogonalLoop=1;jettySize=auto;html=1;exitX=0;exitY=0.5;exitDx=0;exitDy=0;exitPerimeter=0;entryX=0;entryY=0.5;entryDx=0;entryDy=0;entryPerimeter=0;endArrow=none;endFill=0;" parent="1" source="7tGOULQvT-3jEKbnkFim-3" target="ph0teE2vvbvPhY-EjFQS-9" edge="1">
          <mxGeometry relative="1" as="geometry" />
        </mxCell>
        <mxCell id="8ONhAisGdDd2JaunFxpt-17" style="edgeStyle=orthogonalEdgeStyle;rounded=0;orthogonalLoop=1;jettySize=auto;html=1;exitX=0;exitY=0.5;exitDx=0;exitDy=0;exitPerimeter=0;entryX=0;entryY=0.5;entryDx=0;entryDy=0;entryPerimeter=0;endArrow=none;endFill=0;" parent="1" source="7tGOULQvT-3jEKbnkFim-3" target="ph0teE2vvbvPhY-EjFQS-6" edge="1">
          <mxGeometry relative="1" as="geometry" />
        </mxCell>
        <mxCell id="8ONhAisGdDd2JaunFxpt-18" style="edgeStyle=orthogonalEdgeStyle;rounded=0;orthogonalLoop=1;jettySize=auto;html=1;exitX=0;exitY=0.5;exitDx=0;exitDy=0;exitPerimeter=0;entryX=0;entryY=0.5;entryDx=0;entryDy=0;entryPerimeter=0;endArrow=none;endFill=0;" parent="1" source="7tGOULQvT-3jEKbnkFim-3" target="ph0teE2vvbvPhY-EjFQS-7" edge="1">
          <mxGeometry relative="1" as="geometry" />
        </mxCell>
        <mxCell id="8ONhAisGdDd2JaunFxpt-19" style="edgeStyle=orthogonalEdgeStyle;rounded=0;orthogonalLoop=1;jettySize=auto;html=1;exitX=0;exitY=0.5;exitDx=0;exitDy=0;exitPerimeter=0;entryX=0;entryY=0.5;entryDx=0;entryDy=0;entryPerimeter=0;endArrow=none;endFill=0;" parent="1" source="7tGOULQvT-3jEKbnkFim-3" target="ph0teE2vvbvPhY-EjFQS-2" edge="1">
          <mxGeometry relative="1" as="geometry" />
        </mxCell>
        <mxCell id="8ONhAisGdDd2JaunFxpt-20" style="edgeStyle=orthogonalEdgeStyle;rounded=0;orthogonalLoop=1;jettySize=auto;html=1;exitX=0;exitY=0.5;exitDx=0;exitDy=0;exitPerimeter=0;entryX=0;entryY=0.5;entryDx=0;entryDy=0;entryPerimeter=0;endArrow=none;endFill=0;" parent="1" source="7tGOULQvT-3jEKbnkFim-3" target="ph0teE2vvbvPhY-EjFQS-3" edge="1">
          <mxGeometry relative="1" as="geometry" />
        </mxCell>
        <mxCell id="8ONhAisGdDd2JaunFxpt-21" style="edgeStyle=orthogonalEdgeStyle;rounded=0;orthogonalLoop=1;jettySize=auto;html=1;exitX=0;exitY=0.5;exitDx=0;exitDy=0;exitPerimeter=0;entryX=0;entryY=0.5;entryDx=0;entryDy=0;entryPerimeter=0;endArrow=none;endFill=0;" parent="1" source="7tGOULQvT-3jEKbnkFim-3" target="IudF3s8lYzi0-bGoKkTg-24" edge="1">
          <mxGeometry relative="1" as="geometry" />
        </mxCell>
        <mxCell id="8ONhAisGdDd2JaunFxpt-22" style="edgeStyle=orthogonalEdgeStyle;rounded=0;orthogonalLoop=1;jettySize=auto;html=1;exitX=0;exitY=0.5;exitDx=0;exitDy=0;exitPerimeter=0;entryX=0;entryY=0.5;entryDx=0;entryDy=0;entryPerimeter=0;endArrow=none;endFill=0;" parent="1" source="7tGOULQvT-3jEKbnkFim-3" target="IudF3s8lYzi0-bGoKkTg-25" edge="1">
          <mxGeometry relative="1" as="geometry" />
        </mxCell>
        <mxCell id="8ONhAisGdDd2JaunFxpt-23" style="edgeStyle=orthogonalEdgeStyle;rounded=0;orthogonalLoop=1;jettySize=auto;html=1;exitX=0;exitY=0.5;exitDx=0;exitDy=0;exitPerimeter=0;entryX=1;entryY=0.5;entryDx=0;entryDy=0;entryPerimeter=0;endArrow=none;endFill=0;" parent="1" source="7tGOULQvT-3jEKbnkFim-3" target="ph0teE2vvbvPhY-EjFQS-15" edge="1">
          <mxGeometry relative="1" as="geometry" />
        </mxCell>
        <mxCell id="8ONhAisGdDd2JaunFxpt-24" style="edgeStyle=orthogonalEdgeStyle;rounded=0;orthogonalLoop=1;jettySize=auto;html=1;exitX=0;exitY=0.5;exitDx=0;exitDy=0;exitPerimeter=0;entryX=1;entryY=0.5;entryDx=0;entryDy=0;entryPerimeter=0;endArrow=none;endFill=0;" parent="1" source="7tGOULQvT-3jEKbnkFim-3" target="ph0teE2vvbvPhY-EjFQS-16" edge="1">
          <mxGeometry relative="1" as="geometry" />
        </mxCell>
        <mxCell id="8ONhAisGdDd2JaunFxpt-25" style="edgeStyle=orthogonalEdgeStyle;rounded=0;orthogonalLoop=1;jettySize=auto;html=1;exitX=0;exitY=0.5;exitDx=0;exitDy=0;exitPerimeter=0;entryX=1;entryY=0.5;entryDx=0;entryDy=0;entryPerimeter=0;endArrow=none;endFill=0;" parent="1" source="7tGOULQvT-3jEKbnkFim-3" target="ph0teE2vvbvPhY-EjFQS-13" edge="1">
          <mxGeometry relative="1" as="geometry" />
        </mxCell>
        <mxCell id="8ONhAisGdDd2JaunFxpt-26" style="edgeStyle=orthogonalEdgeStyle;rounded=0;orthogonalLoop=1;jettySize=auto;html=1;exitX=0;exitY=0.5;exitDx=0;exitDy=0;exitPerimeter=0;entryX=1;entryY=0.5;entryDx=0;entryDy=0;entryPerimeter=0;endArrow=none;endFill=0;" parent="1" source="7tGOULQvT-3jEKbnkFim-3" target="ph0teE2vvbvPhY-EjFQS-14" edge="1">
          <mxGeometry relative="1" as="geometry" />
        </mxCell>
        <mxCell id="8ONhAisGdDd2JaunFxpt-27" style="edgeStyle=orthogonalEdgeStyle;rounded=0;orthogonalLoop=1;jettySize=auto;html=1;exitX=0;exitY=0.5;exitDx=0;exitDy=0;exitPerimeter=0;entryX=1;entryY=0.5;entryDx=0;entryDy=0;entryPerimeter=0;endArrow=none;endFill=0;" parent="1" source="7tGOULQvT-3jEKbnkFim-3" target="ph0teE2vvbvPhY-EjFQS-11" edge="1">
          <mxGeometry relative="1" as="geometry" />
        </mxCell>
        <mxCell id="8ONhAisGdDd2JaunFxpt-28" style="edgeStyle=orthogonalEdgeStyle;rounded=0;orthogonalLoop=1;jettySize=auto;html=1;exitX=0;exitY=0.5;exitDx=0;exitDy=0;exitPerimeter=0;entryX=1;entryY=0.5;entryDx=0;entryDy=0;entryPerimeter=0;endArrow=none;endFill=0;" parent="1" source="7tGOULQvT-3jEKbnkFim-3" target="ph0teE2vvbvPhY-EjFQS-12" edge="1">
          <mxGeometry relative="1" as="geometry" />
        </mxCell>
        <mxCell id="7tGOULQvT-3jEKbnkFim-3" value="" style="shape=mxgraph.cisco.hubs_and_gateways.small_hub;html=1;pointerEvents=1;dashed=0;fillColor=#036897;strokeColor=#ffffff;strokeWidth=2;verticalLabelPosition=bottom;verticalAlign=top;align=center;outlineConnect=0;rounded=0;" parent="1" vertex="1">
          <mxGeometry x="680" y="400" width="160" height="40" as="geometry" />
        </mxCell>
        <mxCell id="8ONhAisGdDd2JaunFxpt-39" style="edgeStyle=orthogonalEdgeStyle;rounded=0;orthogonalLoop=1;jettySize=auto;html=1;exitX=0.16;exitY=0.55;exitDx=0;exitDy=0;exitPerimeter=0;entryX=0;entryY=0.5;entryDx=0;entryDy=0;entryPerimeter=0;endArrow=none;endFill=0;" parent="1" source="az1BL_j5DGh5pGOqvzN_-1" target="az1BL_j5DGh5pGOqvzN_-2" edge="1">
          <mxGeometry relative="1" as="geometry">
            <Array as="points">
              <mxPoint x="420" y="319" />
              <mxPoint x="420" y="435" />
            </Array>
          </mxGeometry>
        </mxCell>
        <mxCell id="az1BL_j5DGh5pGOqvzN_-1" value="" style="ellipse;shape=cloud;whiteSpace=wrap;html=1;rounded=0;" parent="1" vertex="1">
          <mxGeometry x="479" y="280" width="160" height="70" as="geometry" />
        </mxCell>
        <mxCell id="az1BL_j5DGh5pGOqvzN_-2" value="" style="shape=mxgraph.cisco.routers.router;html=1;pointerEvents=1;dashed=0;fillColor=#036897;strokeColor=#ffffff;strokeWidth=2;verticalLabelPosition=bottom;verticalAlign=top;align=center;outlineConnect=0;rounded=0;" parent="1" vertex="1">
          <mxGeometry x="490" y="415" width="78" height="40" as="geometry" />
        </mxCell>
        <mxCell id="az1BL_j5DGh5pGOqvzN_-5" value="White IP" style="rounded=0;whiteSpace=wrap;html=1;" parent="1" vertex="1">
          <mxGeometry x="510" y="300" width="51" height="30" as="geometry" />
        </mxCell>
        <mxCell id="az1BL_j5DGh5pGOqvzN_-14" value="VLAN 10" style="rounded=0;whiteSpace=wrap;html=1;" parent="1" vertex="1">
          <mxGeometry x="420" y="490" width="60" height="30" as="geometry" />
        </mxCell>
        <mxCell id="az1BL_j5DGh5pGOqvzN_-23" value="VLAN 80" style="rounded=0;whiteSpace=wrap;html=1;" parent="1" vertex="1">
          <mxGeometry x="840" y="450" width="60" height="30" as="geometry" />
        </mxCell>
        <mxCell id="8ONhAisGdDd2JaunFxpt-29" value="Opensense" style="rounded=0;whiteSpace=wrap;html=1;" parent="1" vertex="1">
          <mxGeometry x="569" y="420" width="70" height="30" as="geometry" />
        </mxCell>
        <mxCell id="8ONhAisGdDd2JaunFxpt-30" value="Switch" style="rounded=0;whiteSpace=wrap;html=1;" parent="1" vertex="1">
          <mxGeometry x="840" y="400" width="60" height="30" as="geometry" />
        </mxCell>
        <mxCell id="8ONhAisGdDd2JaunFxpt-35" value="VLAN 1" style="rounded=0;whiteSpace=wrap;html=1;" parent="1" vertex="1">
          <mxGeometry x="429" y="370" width="50" height="30" as="geometry" />
        </mxCell>
        <mxCell id="8ONhAisGdDd2JaunFxpt-37" value="IP v4+v6&amp;nbsp;" style="rounded=0;whiteSpace=wrap;html=1;" parent="1" vertex="1">
          <mxGeometry x="561" y="300" width="50" height="30" as="geometry" />
        </mxCell>
        <mxCell id="4ErOI3XYGRyesMDKJtMu-60" style="edgeStyle=orthogonalEdgeStyle;rounded=0;orthogonalLoop=1;jettySize=auto;html=1;exitX=0.5;exitY=1;exitDx=0;exitDy=0;exitPerimeter=0;entryX=0.83;entryY=0.5;entryDx=0;entryDy=0;entryPerimeter=0;endArrow=none;endFill=0;" parent="1" source="8ONhAisGdDd2JaunFxpt-38" target="4ErOI3XYGRyesMDKJtMu-1" edge="1">
          <mxGeometry relative="1" as="geometry">
            <Array as="points">
              <mxPoint x="1240" y="420" />
              <mxPoint x="1060" y="420" />
              <mxPoint x="1060" y="480" />
            </Array>
          </mxGeometry>
        </mxCell>
        <mxCell id="4ErOI3XYGRyesMDKJtMu-66" style="edgeStyle=orthogonalEdgeStyle;rounded=0;orthogonalLoop=1;jettySize=auto;html=1;exitX=0.5;exitY=1;exitDx=0;exitDy=0;exitPerimeter=0;entryX=0.16;entryY=0.5;entryDx=0;entryDy=0;entryPerimeter=0;endArrow=none;endFill=0;" parent="1" source="8ONhAisGdDd2JaunFxpt-38" target="4ErOI3XYGRyesMDKJtMu-28" edge="1">
          <mxGeometry relative="1" as="geometry">
            <Array as="points">
              <mxPoint x="1240" y="420" />
              <mxPoint x="1420" y="420" />
              <mxPoint x="1420" y="480" />
            </Array>
          </mxGeometry>
        </mxCell>
        <mxCell id="4ErOI3XYGRyesMDKJtMu-73" style="edgeStyle=orthogonalEdgeStyle;rounded=0;orthogonalLoop=1;jettySize=auto;html=1;exitX=0.5;exitY=1;exitDx=0;exitDy=0;exitPerimeter=0;entryX=0.83;entryY=0.5;entryDx=0;entryDy=0;entryPerimeter=0;endArrow=none;endFill=0;" parent="1" source="8ONhAisGdDd2JaunFxpt-38" target="4ErOI3XYGRyesMDKJtMu-3" edge="1">
          <mxGeometry relative="1" as="geometry">
            <Array as="points">
              <mxPoint x="1240" y="420" />
              <mxPoint x="1300" y="420" />
              <mxPoint x="1300" y="480" />
            </Array>
          </mxGeometry>
        </mxCell>
        <mxCell id="4ErOI3XYGRyesMDKJtMu-74" style="edgeStyle=orthogonalEdgeStyle;rounded=0;orthogonalLoop=1;jettySize=auto;html=1;exitX=0.5;exitY=1;exitDx=0;exitDy=0;exitPerimeter=0;entryX=0.83;entryY=0.5;entryDx=0;entryDy=0;entryPerimeter=0;endArrow=none;endFill=0;" parent="1" source="8ONhAisGdDd2JaunFxpt-38" target="4ErOI3XYGRyesMDKJtMu-7" edge="1">
          <mxGeometry relative="1" as="geometry">
            <Array as="points">
              <mxPoint x="1240" y="420" />
              <mxPoint x="1300" y="420" />
              <mxPoint x="1300" y="600" />
            </Array>
          </mxGeometry>
        </mxCell>
        <mxCell id="4ErOI3XYGRyesMDKJtMu-76" style="edgeStyle=orthogonalEdgeStyle;rounded=0;orthogonalLoop=1;jettySize=auto;html=1;exitX=0.5;exitY=1;exitDx=0;exitDy=0;exitPerimeter=0;endArrow=none;endFill=0;" parent="1" source="8ONhAisGdDd2JaunFxpt-38" target="4ErOI3XYGRyesMDKJtMu-49" edge="1">
          <mxGeometry relative="1" as="geometry">
            <Array as="points">
              <mxPoint x="1240" y="420" />
              <mxPoint x="1360" y="420" />
              <mxPoint x="1360" y="320" />
            </Array>
          </mxGeometry>
        </mxCell>
        <mxCell id="8ONhAisGdDd2JaunFxpt-38" value="" style="shape=mxgraph.cisco.hubs_and_gateways.small_hub;html=1;pointerEvents=1;dashed=0;fillColor=#036897;strokeColor=#ffffff;strokeWidth=2;verticalLabelPosition=bottom;verticalAlign=top;align=center;outlineConnect=0;rounded=0;" parent="1" vertex="1">
          <mxGeometry x="1160" y="360" width="160" height="40" as="geometry" />
        </mxCell>
        <mxCell id="8ONhAisGdDd2JaunFxpt-40" value="Switch" style="rounded=0;whiteSpace=wrap;html=1;" parent="1" vertex="1">
          <mxGeometry x="1210" y="330" width="60" height="30" as="geometry" />
        </mxCell>
        <mxCell id="4ErOI3XYGRyesMDKJtMu-1" value="" style="shape=mxgraph.cisco.computers_and_peripherals.pc;html=1;pointerEvents=1;dashed=0;fillColor=#036897;strokeColor=#ffffff;strokeWidth=2;verticalLabelPosition=bottom;verticalAlign=top;align=center;outlineConnect=0;rounded=0;" parent="1" vertex="1">
          <mxGeometry x="960" y="440" width="80" height="80" as="geometry" />
        </mxCell>
        <mxCell id="4ErOI3XYGRyesMDKJtMu-63" style="edgeStyle=orthogonalEdgeStyle;rounded=0;orthogonalLoop=1;jettySize=auto;html=1;exitX=0.16;exitY=0.5;exitDx=0;exitDy=0;exitPerimeter=0;entryX=0.5;entryY=1;entryDx=0;entryDy=0;entryPerimeter=0;endArrow=none;endFill=0;" parent="1" source="4ErOI3XYGRyesMDKJtMu-2" target="8ONhAisGdDd2JaunFxpt-38" edge="1">
          <mxGeometry relative="1" as="geometry">
            <Array as="points">
              <mxPoint x="1060" y="480" />
              <mxPoint x="1060" y="420" />
              <mxPoint x="1240" y="420" />
            </Array>
          </mxGeometry>
        </mxCell>
        <mxCell id="4ErOI3XYGRyesMDKJtMu-2" value="" style="shape=mxgraph.cisco.computers_and_peripherals.pc;html=1;pointerEvents=1;dashed=0;fillColor=#036897;strokeColor=#ffffff;strokeWidth=2;verticalLabelPosition=bottom;verticalAlign=top;align=center;outlineConnect=0;rounded=0;" parent="1" vertex="1">
          <mxGeometry x="1080" y="440" width="80" height="80" as="geometry" />
        </mxCell>
        <mxCell id="4ErOI3XYGRyesMDKJtMu-3" value="" style="shape=mxgraph.cisco.computers_and_peripherals.pc;html=1;pointerEvents=1;dashed=0;fillColor=#036897;strokeColor=#ffffff;strokeWidth=2;verticalLabelPosition=bottom;verticalAlign=top;align=center;outlineConnect=0;rounded=0;" parent="1" vertex="1">
          <mxGeometry x="1200" y="440" width="80" height="80" as="geometry" />
        </mxCell>
        <mxCell id="4ErOI3XYGRyesMDKJtMu-69" style="edgeStyle=orthogonalEdgeStyle;rounded=0;orthogonalLoop=1;jettySize=auto;html=1;exitX=0.83;exitY=0.5;exitDx=0;exitDy=0;exitPerimeter=0;entryX=0.5;entryY=1;entryDx=0;entryDy=0;entryPerimeter=0;endArrow=none;endFill=0;" parent="1" source="4ErOI3XYGRyesMDKJtMu-4" target="8ONhAisGdDd2JaunFxpt-38" edge="1">
          <mxGeometry relative="1" as="geometry">
            <Array as="points">
              <mxPoint x="1420" y="480" />
              <mxPoint x="1420" y="420" />
              <mxPoint x="1240" y="420" />
            </Array>
          </mxGeometry>
        </mxCell>
        <mxCell id="4ErOI3XYGRyesMDKJtMu-4" value="" style="shape=mxgraph.cisco.computers_and_peripherals.pc;html=1;pointerEvents=1;dashed=0;fillColor=#036897;strokeColor=#ffffff;strokeWidth=2;verticalLabelPosition=bottom;verticalAlign=top;align=center;outlineConnect=0;rounded=0;" parent="1" vertex="1">
          <mxGeometry x="1320" y="440" width="80" height="80" as="geometry" />
        </mxCell>
        <mxCell id="4ErOI3XYGRyesMDKJtMu-61" style="edgeStyle=orthogonalEdgeStyle;rounded=0;orthogonalLoop=1;jettySize=auto;html=1;exitX=0.83;exitY=0.5;exitDx=0;exitDy=0;exitPerimeter=0;entryX=0.5;entryY=1;entryDx=0;entryDy=0;entryPerimeter=0;endArrow=none;endFill=0;" parent="1" source="4ErOI3XYGRyesMDKJtMu-5" target="8ONhAisGdDd2JaunFxpt-38" edge="1">
          <mxGeometry relative="1" as="geometry">
            <Array as="points">
              <mxPoint x="1060" y="600" />
              <mxPoint x="1060" y="420" />
              <mxPoint x="1240" y="420" />
            </Array>
          </mxGeometry>
        </mxCell>
        <mxCell id="4ErOI3XYGRyesMDKJtMu-5" value="" style="shape=mxgraph.cisco.computers_and_peripherals.pc;html=1;pointerEvents=1;dashed=0;fillColor=#036897;strokeColor=#ffffff;strokeWidth=2;verticalLabelPosition=bottom;verticalAlign=top;align=center;outlineConnect=0;rounded=0;" parent="1" vertex="1">
          <mxGeometry x="960" y="560" width="80" height="80" as="geometry" />
        </mxCell>
        <mxCell id="4ErOI3XYGRyesMDKJtMu-64" style="edgeStyle=orthogonalEdgeStyle;rounded=0;orthogonalLoop=1;jettySize=auto;html=1;exitX=0.16;exitY=0.5;exitDx=0;exitDy=0;exitPerimeter=0;entryX=0.5;entryY=1;entryDx=0;entryDy=0;entryPerimeter=0;endArrow=none;endFill=0;" parent="1" source="4ErOI3XYGRyesMDKJtMu-6" target="8ONhAisGdDd2JaunFxpt-38" edge="1">
          <mxGeometry relative="1" as="geometry">
            <Array as="points">
              <mxPoint x="1060" y="600" />
              <mxPoint x="1060" y="420" />
              <mxPoint x="1240" y="420" />
            </Array>
          </mxGeometry>
        </mxCell>
        <mxCell id="4ErOI3XYGRyesMDKJtMu-6" value="" style="shape=mxgraph.cisco.computers_and_peripherals.pc;html=1;pointerEvents=1;dashed=0;fillColor=#036897;strokeColor=#ffffff;strokeWidth=2;verticalLabelPosition=bottom;verticalAlign=top;align=center;outlineConnect=0;rounded=0;" parent="1" vertex="1">
          <mxGeometry x="1080" y="560" width="80" height="80" as="geometry" />
        </mxCell>
        <mxCell id="4ErOI3XYGRyesMDKJtMu-7" value="" style="shape=mxgraph.cisco.computers_and_peripherals.pc;html=1;pointerEvents=1;dashed=0;fillColor=#036897;strokeColor=#ffffff;strokeWidth=2;verticalLabelPosition=bottom;verticalAlign=top;align=center;outlineConnect=0;rounded=0;" parent="1" vertex="1">
          <mxGeometry x="1200" y="560" width="80" height="80" as="geometry" />
        </mxCell>
        <mxCell id="4ErOI3XYGRyesMDKJtMu-70" style="edgeStyle=orthogonalEdgeStyle;rounded=0;orthogonalLoop=1;jettySize=auto;html=1;exitX=0.83;exitY=0.5;exitDx=0;exitDy=0;exitPerimeter=0;entryX=0.5;entryY=1;entryDx=0;entryDy=0;entryPerimeter=0;endArrow=none;endFill=0;" parent="1" source="4ErOI3XYGRyesMDKJtMu-8" target="8ONhAisGdDd2JaunFxpt-38" edge="1">
          <mxGeometry relative="1" as="geometry">
            <Array as="points">
              <mxPoint x="1420" y="600" />
              <mxPoint x="1420" y="420" />
              <mxPoint x="1240" y="420" />
            </Array>
          </mxGeometry>
        </mxCell>
        <mxCell id="4ErOI3XYGRyesMDKJtMu-8" value="" style="shape=mxgraph.cisco.computers_and_peripherals.pc;html=1;pointerEvents=1;dashed=0;fillColor=#036897;strokeColor=#ffffff;strokeWidth=2;verticalLabelPosition=bottom;verticalAlign=top;align=center;outlineConnect=0;rounded=0;" parent="1" vertex="1">
          <mxGeometry x="1320" y="560" width="80" height="80" as="geometry" />
        </mxCell>
        <mxCell id="4ErOI3XYGRyesMDKJtMu-17" value="VLAN 10" style="rounded=0;whiteSpace=wrap;html=1;" parent="1" vertex="1">
          <mxGeometry x="960" y="520" width="80" height="20" as="geometry" />
        </mxCell>
        <mxCell id="4ErOI3XYGRyesMDKJtMu-28" value="" style="shape=mxgraph.cisco.computers_and_peripherals.pc;html=1;pointerEvents=1;dashed=0;fillColor=#036897;strokeColor=#ffffff;strokeWidth=2;verticalLabelPosition=bottom;verticalAlign=top;align=center;outlineConnect=0;rounded=0;" parent="1" vertex="1">
          <mxGeometry x="1440" y="440" width="80" height="80" as="geometry" />
        </mxCell>
        <mxCell id="4ErOI3XYGRyesMDKJtMu-67" style="edgeStyle=orthogonalEdgeStyle;rounded=0;orthogonalLoop=1;jettySize=auto;html=1;exitX=0.16;exitY=0.5;exitDx=0;exitDy=0;exitPerimeter=0;entryX=0.5;entryY=1;entryDx=0;entryDy=0;entryPerimeter=0;endArrow=none;endFill=0;" parent="1" source="4ErOI3XYGRyesMDKJtMu-29" target="8ONhAisGdDd2JaunFxpt-38" edge="1">
          <mxGeometry relative="1" as="geometry">
            <Array as="points">
              <mxPoint x="1420" y="600" />
              <mxPoint x="1420" y="420" />
              <mxPoint x="1240" y="420" />
            </Array>
          </mxGeometry>
        </mxCell>
        <mxCell id="4ErOI3XYGRyesMDKJtMu-29" value="" style="shape=mxgraph.cisco.computers_and_peripherals.pc;html=1;pointerEvents=1;dashed=0;fillColor=#036897;strokeColor=#ffffff;strokeWidth=2;verticalLabelPosition=bottom;verticalAlign=top;align=center;outlineConnect=0;rounded=0;" parent="1" vertex="1">
          <mxGeometry x="1440" y="560" width="80" height="80" as="geometry" />
        </mxCell>
        <mxCell id="4ErOI3XYGRyesMDKJtMu-62" style="edgeStyle=orthogonalEdgeStyle;rounded=0;orthogonalLoop=1;jettySize=auto;html=1;exitX=0.83;exitY=0.5;exitDx=0;exitDy=0;exitPerimeter=0;endArrow=none;endFill=0;" parent="1" source="4ErOI3XYGRyesMDKJtMu-33" edge="1">
          <mxGeometry relative="1" as="geometry">
            <mxPoint x="1240" y="400" as="targetPoint" />
            <Array as="points">
              <mxPoint x="1060" y="720" />
              <mxPoint x="1060" y="420" />
              <mxPoint x="1240" y="420" />
            </Array>
          </mxGeometry>
        </mxCell>
        <mxCell id="4ErOI3XYGRyesMDKJtMu-33" value="" style="shape=mxgraph.cisco.computers_and_peripherals.pc;html=1;pointerEvents=1;dashed=0;fillColor=#036897;strokeColor=#ffffff;strokeWidth=2;verticalLabelPosition=bottom;verticalAlign=top;align=center;outlineConnect=0;rounded=0;" parent="1" vertex="1">
          <mxGeometry x="960" y="680" width="80" height="80" as="geometry" />
        </mxCell>
        <mxCell id="4ErOI3XYGRyesMDKJtMu-65" style="edgeStyle=orthogonalEdgeStyle;rounded=0;orthogonalLoop=1;jettySize=auto;html=1;exitX=0.16;exitY=0.5;exitDx=0;exitDy=0;exitPerimeter=0;entryX=0.5;entryY=1;entryDx=0;entryDy=0;entryPerimeter=0;endArrow=none;endFill=0;" parent="1" source="4ErOI3XYGRyesMDKJtMu-34" target="8ONhAisGdDd2JaunFxpt-38" edge="1">
          <mxGeometry relative="1" as="geometry">
            <Array as="points">
              <mxPoint x="1060" y="720" />
              <mxPoint x="1060" y="420" />
              <mxPoint x="1240" y="420" />
            </Array>
          </mxGeometry>
        </mxCell>
        <mxCell id="4ErOI3XYGRyesMDKJtMu-34" value="" style="shape=mxgraph.cisco.computers_and_peripherals.pc;html=1;pointerEvents=1;dashed=0;fillColor=#036897;strokeColor=#ffffff;strokeWidth=2;verticalLabelPosition=bottom;verticalAlign=top;align=center;outlineConnect=0;rounded=0;" parent="1" vertex="1">
          <mxGeometry x="1080" y="680" width="80" height="80" as="geometry" />
        </mxCell>
        <mxCell id="4ErOI3XYGRyesMDKJtMu-75" style="edgeStyle=orthogonalEdgeStyle;rounded=0;orthogonalLoop=1;jettySize=auto;html=1;exitX=0.83;exitY=0.5;exitDx=0;exitDy=0;exitPerimeter=0;entryX=0.5;entryY=1;entryDx=0;entryDy=0;entryPerimeter=0;endArrow=none;endFill=0;" parent="1" source="4ErOI3XYGRyesMDKJtMu-35" target="8ONhAisGdDd2JaunFxpt-38" edge="1">
          <mxGeometry relative="1" as="geometry">
            <Array as="points">
              <mxPoint x="1300" y="720" />
              <mxPoint x="1300" y="420" />
              <mxPoint x="1240" y="420" />
            </Array>
          </mxGeometry>
        </mxCell>
        <mxCell id="4ErOI3XYGRyesMDKJtMu-35" value="" style="shape=mxgraph.cisco.computers_and_peripherals.pc;html=1;pointerEvents=1;dashed=0;fillColor=#036897;strokeColor=#ffffff;strokeWidth=2;verticalLabelPosition=bottom;verticalAlign=top;align=center;outlineConnect=0;rounded=0;" parent="1" vertex="1">
          <mxGeometry x="1200" y="680" width="80" height="80" as="geometry" />
        </mxCell>
        <mxCell id="4ErOI3XYGRyesMDKJtMu-72" style="edgeStyle=orthogonalEdgeStyle;rounded=0;orthogonalLoop=1;jettySize=auto;html=1;exitX=0.83;exitY=0.5;exitDx=0;exitDy=0;exitPerimeter=0;entryX=0.5;entryY=1;entryDx=0;entryDy=0;entryPerimeter=0;endArrow=none;endFill=0;" parent="1" source="4ErOI3XYGRyesMDKJtMu-36" target="8ONhAisGdDd2JaunFxpt-38" edge="1">
          <mxGeometry relative="1" as="geometry">
            <Array as="points">
              <mxPoint x="1420" y="720" />
              <mxPoint x="1420" y="420" />
              <mxPoint x="1240" y="420" />
            </Array>
          </mxGeometry>
        </mxCell>
        <mxCell id="4ErOI3XYGRyesMDKJtMu-36" value="" style="shape=mxgraph.cisco.computers_and_peripherals.pc;html=1;pointerEvents=1;dashed=0;fillColor=#036897;strokeColor=#ffffff;strokeWidth=2;verticalLabelPosition=bottom;verticalAlign=top;align=center;outlineConnect=0;rounded=0;" parent="1" vertex="1">
          <mxGeometry x="1320" y="680" width="80" height="80" as="geometry" />
        </mxCell>
        <mxCell id="4ErOI3XYGRyesMDKJtMu-68" style="edgeStyle=orthogonalEdgeStyle;rounded=0;orthogonalLoop=1;jettySize=auto;html=1;exitX=0.16;exitY=0.5;exitDx=0;exitDy=0;exitPerimeter=0;entryX=0.5;entryY=1;entryDx=0;entryDy=0;entryPerimeter=0;endArrow=none;endFill=0;" parent="1" source="4ErOI3XYGRyesMDKJtMu-41" target="8ONhAisGdDd2JaunFxpt-38" edge="1">
          <mxGeometry relative="1" as="geometry">
            <Array as="points">
              <mxPoint x="1420" y="720" />
              <mxPoint x="1420" y="420" />
              <mxPoint x="1240" y="420" />
            </Array>
          </mxGeometry>
        </mxCell>
        <mxCell id="4ErOI3XYGRyesMDKJtMu-41" value="" style="shape=mxgraph.cisco.computers_and_peripherals.pc;html=1;pointerEvents=1;dashed=0;fillColor=#036897;strokeColor=#ffffff;strokeWidth=2;verticalLabelPosition=bottom;verticalAlign=top;align=center;outlineConnect=0;rounded=0;" parent="1" vertex="1">
          <mxGeometry x="1440" y="680" width="80" height="80" as="geometry" />
        </mxCell>
        <mxCell id="4ErOI3XYGRyesMDKJtMu-49" value="" style="shape=mxgraph.cisco.computers_and_peripherals.pc;html=1;pointerEvents=1;dashed=0;fillColor=#036897;strokeColor=#ffffff;strokeWidth=2;verticalLabelPosition=bottom;verticalAlign=top;align=center;outlineConnect=0;rounded=0;" parent="1" vertex="1">
          <mxGeometry x="1400" y="280" width="80" height="80" as="geometry" />
        </mxCell>
        <mxCell id="4ErOI3XYGRyesMDKJtMu-50" value="VLAN 1" style="rounded=0;whiteSpace=wrap;html=1;" parent="1" vertex="1">
          <mxGeometry x="1400" y="360" width="80" height="20" as="geometry" />
        </mxCell>
        <mxCell id="gO8Z8uTh6dF1cHKQUGrr-1" value="VLAN 20" style="rounded=0;whiteSpace=wrap;html=1;" parent="1" vertex="1">
          <mxGeometry x="419" y="530" width="60" height="30" as="geometry" />
        </mxCell>
        <mxCell id="gO8Z8uTh6dF1cHKQUGrr-3" value="VLAN 20" style="rounded=0;whiteSpace=wrap;html=1;" parent="1" vertex="1">
          <mxGeometry x="1080" y="520" width="80" height="20" as="geometry" />
        </mxCell>
      </root>
    </mxGraphModel>
  </diagram>
  <diagram id="0oK83Jx_CrKbdP1iis7_" name="Demo 308">
    <mxGraphModel dx="1422" dy="799" grid="1" gridSize="10" guides="1" tooltips="1" connect="1" arrows="1" fold="1" page="1" pageScale="1" pageWidth="1169" pageHeight="1654" math="0" shadow="0">
      <root>
        <mxCell id="0" />
        <mxCell id="1" parent="0" />
        <mxCell id="0MnLnCfNHMBmKRLeDBoI-1" value="" style="rounded=0;whiteSpace=wrap;html=1;fillColor=#dae8fc;strokeColor=#6c8ebf;" parent="1" vertex="1">
          <mxGeometry x="40" y="360" width="640" height="240" as="geometry" />
        </mxCell>
        <mxCell id="YQsO2yMIc8mYlSgTmjBG-12" value="" style="rounded=0;whiteSpace=wrap;html=1;fillColor=#d5e8d4;strokeColor=#82b366;" parent="1" vertex="1">
          <mxGeometry x="80" y="470" width="80" height="110" as="geometry" />
        </mxCell>
        <mxCell id="YQsO2yMIc8mYlSgTmjBG-10" value="" style="rounded=0;whiteSpace=wrap;html=1;fillColor=#ffe6cc;strokeColor=#d79b00;" parent="1" vertex="1">
          <mxGeometry x="199" y="470" width="80" height="110" as="geometry" />
        </mxCell>
        <mxCell id="YQsO2yMIc8mYlSgTmjBG-8" value="" style="rounded=0;whiteSpace=wrap;html=1;fillColor=#fff2cc;strokeColor=#d6b656;" parent="1" vertex="1">
          <mxGeometry x="321" y="470" width="80" height="110" as="geometry" />
        </mxCell>
        <mxCell id="YQsO2yMIc8mYlSgTmjBG-7" value="" style="rounded=0;whiteSpace=wrap;html=1;fillColor=#f8cecc;strokeColor=#b85450;" parent="1" vertex="1">
          <mxGeometry x="440" y="470" width="80" height="110" as="geometry" />
        </mxCell>
        <mxCell id="YQsO2yMIc8mYlSgTmjBG-2" value="" style="rounded=0;whiteSpace=wrap;html=1;fillColor=#e1d5e7;strokeColor=#9673a6;" parent="1" vertex="1">
          <mxGeometry x="560" y="470" width="80" height="110" as="geometry" />
        </mxCell>
        <mxCell id="0MnLnCfNHMBmKRLeDBoI-2" style="edgeStyle=orthogonalEdgeStyle;rounded=0;orthogonalLoop=1;jettySize=auto;html=1;exitX=0.5;exitY=1;exitDx=0;exitDy=0;exitPerimeter=0;entryX=0.5;entryY=0;entryDx=0;entryDy=0;entryPerimeter=0;endArrow=none;endFill=0;" parent="1" source="0MnLnCfNHMBmKRLeDBoI-3" target="0MnLnCfNHMBmKRLeDBoI-6" edge="1">
          <mxGeometry relative="1" as="geometry">
            <Array as="points">
              <mxPoint x="210" y="410" />
              <mxPoint x="180" y="410" />
            </Array>
          </mxGeometry>
        </mxCell>
        <mxCell id="coLXJWwWkwuDFtRaaJJY-34" style="edgeStyle=orthogonalEdgeStyle;rounded=0;orthogonalLoop=1;jettySize=auto;html=1;exitX=0.5;exitY=0;exitDx=0;exitDy=0;exitPerimeter=0;entryX=0.5;entryY=1;entryDx=0;entryDy=0;entryPerimeter=0;endArrow=none;endFill=0;" parent="1" source="0MnLnCfNHMBmKRLeDBoI-3" target="ZC5E4xKrVCi0A6rrJ-Is-1" edge="1">
          <mxGeometry relative="1" as="geometry" />
        </mxCell>
        <mxCell id="0MnLnCfNHMBmKRLeDBoI-3" value="" style="shape=mxgraph.cisco.servers.standard_host;html=1;pointerEvents=1;dashed=0;fillColor=#036897;strokeColor=#ffffff;strokeWidth=2;verticalLabelPosition=bottom;verticalAlign=top;align=center;outlineConnect=0;rounded=0;" parent="1" vertex="1">
          <mxGeometry x="131" y="370" width="160" height="30" as="geometry" />
        </mxCell>
        <mxCell id="coLXJWwWkwuDFtRaaJJY-20" style="edgeStyle=orthogonalEdgeStyle;rounded=0;orthogonalLoop=1;jettySize=auto;html=1;exitX=0.5;exitY=1;exitDx=0;exitDy=0;exitPerimeter=0;entryX=0.5;entryY=0;entryDx=0;entryDy=0;endArrow=none;endFill=0;" parent="1" source="0MnLnCfNHMBmKRLeDBoI-6" target="coLXJWwWkwuDFtRaaJJY-6" edge="1">
          <mxGeometry relative="1" as="geometry" />
        </mxCell>
        <mxCell id="coLXJWwWkwuDFtRaaJJY-21" style="edgeStyle=orthogonalEdgeStyle;rounded=0;orthogonalLoop=1;jettySize=auto;html=1;exitX=0.5;exitY=1;exitDx=0;exitDy=0;exitPerimeter=0;entryX=0.5;entryY=0;entryDx=0;entryDy=0;endArrow=none;endFill=0;" parent="1" source="0MnLnCfNHMBmKRLeDBoI-6" target="coLXJWwWkwuDFtRaaJJY-7" edge="1">
          <mxGeometry relative="1" as="geometry">
            <Array as="points">
              <mxPoint x="360" y="460" />
              <mxPoint x="240" y="460" />
              <mxPoint x="240" y="480" />
            </Array>
          </mxGeometry>
        </mxCell>
        <mxCell id="coLXJWwWkwuDFtRaaJJY-23" style="edgeStyle=orthogonalEdgeStyle;rounded=0;orthogonalLoop=1;jettySize=auto;html=1;exitX=0.5;exitY=1;exitDx=0;exitDy=0;exitPerimeter=0;entryX=0.5;entryY=0;entryDx=0;entryDy=0;endArrow=none;endFill=0;" parent="1" source="0MnLnCfNHMBmKRLeDBoI-6" target="coLXJWwWkwuDFtRaaJJY-2" edge="1">
          <mxGeometry relative="1" as="geometry">
            <Array as="points">
              <mxPoint x="360" y="460" />
              <mxPoint x="120" y="460" />
            </Array>
          </mxGeometry>
        </mxCell>
        <mxCell id="coLXJWwWkwuDFtRaaJJY-24" style="edgeStyle=orthogonalEdgeStyle;rounded=0;orthogonalLoop=1;jettySize=auto;html=1;exitX=0.5;exitY=1;exitDx=0;exitDy=0;exitPerimeter=0;entryX=0.5;entryY=0;entryDx=0;entryDy=0;endArrow=none;endFill=0;" parent="1" source="0MnLnCfNHMBmKRLeDBoI-6" target="coLXJWwWkwuDFtRaaJJY-12" edge="1">
          <mxGeometry relative="1" as="geometry">
            <Array as="points">
              <mxPoint x="360" y="460" />
              <mxPoint x="480" y="460" />
            </Array>
          </mxGeometry>
        </mxCell>
        <mxCell id="coLXJWwWkwuDFtRaaJJY-25" style="edgeStyle=orthogonalEdgeStyle;rounded=0;orthogonalLoop=1;jettySize=auto;html=1;exitX=0.5;exitY=1;exitDx=0;exitDy=0;exitPerimeter=0;entryX=0.5;entryY=0;entryDx=0;entryDy=0;endArrow=none;endFill=0;" parent="1" source="0MnLnCfNHMBmKRLeDBoI-6" target="coLXJWwWkwuDFtRaaJJY-9" edge="1">
          <mxGeometry relative="1" as="geometry">
            <Array as="points">
              <mxPoint x="360" y="460" />
              <mxPoint x="600" y="460" />
            </Array>
          </mxGeometry>
        </mxCell>
        <mxCell id="0MnLnCfNHMBmKRLeDBoI-6" value="" style="shape=mxgraph.cisco.routers.router;html=1;pointerEvents=1;dashed=0;fillColor=#036897;strokeColor=#ffffff;strokeWidth=2;verticalLabelPosition=bottom;verticalAlign=top;align=center;outlineConnect=0;rounded=0;" parent="1" vertex="1">
          <mxGeometry x="321" y="415" width="78" height="40" as="geometry" />
        </mxCell>
        <mxCell id="0MnLnCfNHMBmKRLeDBoI-8" value="Opensense" style="rounded=0;whiteSpace=wrap;html=1;" parent="1" vertex="1">
          <mxGeometry x="401" y="415" width="70" height="30" as="geometry" />
        </mxCell>
        <mxCell id="0MnLnCfNHMBmKRLeDBoI-9" value="VLAN 10" style="rounded=0;whiteSpace=wrap;html=1;" parent="1" vertex="1">
          <mxGeometry x="75" y="370" width="50" height="30" as="geometry" />
        </mxCell>
        <mxCell id="ZC5E4xKrVCi0A6rrJ-Is-1" value="" style="shape=mxgraph.cisco.hubs_and_gateways.small_hub;html=1;pointerEvents=1;dashed=0;fillColor=#036897;strokeColor=#ffffff;strokeWidth=2;verticalLabelPosition=bottom;verticalAlign=top;align=center;outlineConnect=0;rounded=0;" parent="1" vertex="1">
          <mxGeometry x="131" y="310" width="160" height="40" as="geometry" />
        </mxCell>
        <mxCell id="coLXJWwWkwuDFtRaaJJY-2" value="WEB-L&lt;br&gt;SRV&lt;br&gt;RTR_L" style="rounded=0;whiteSpace=wrap;html=1;" parent="1" vertex="1">
          <mxGeometry x="90" y="480" width="60" height="50" as="geometry" />
        </mxCell>
        <mxCell id="coLXJWwWkwuDFtRaaJJY-26" style="edgeStyle=orthogonalEdgeStyle;rounded=0;orthogonalLoop=1;jettySize=auto;html=1;exitX=1;exitY=0.5;exitDx=0;exitDy=0;entryX=0;entryY=0.5;entryDx=0;entryDy=0;endArrow=none;endFill=0;" parent="1" source="coLXJWwWkwuDFtRaaJJY-6" target="coLXJWwWkwuDFtRaaJJY-12" edge="1">
          <mxGeometry relative="1" as="geometry" />
        </mxCell>
        <mxCell id="coLXJWwWkwuDFtRaaJJY-28" style="edgeStyle=orthogonalEdgeStyle;rounded=0;orthogonalLoop=1;jettySize=auto;html=1;exitX=0;exitY=0.5;exitDx=0;exitDy=0;entryX=1;entryY=0.5;entryDx=0;entryDy=0;endArrow=none;endFill=0;" parent="1" source="coLXJWwWkwuDFtRaaJJY-6" target="coLXJWwWkwuDFtRaaJJY-7" edge="1">
          <mxGeometry relative="1" as="geometry" />
        </mxCell>
        <mxCell id="coLXJWwWkwuDFtRaaJJY-6" value="CLI&lt;br&gt;ISP" style="rounded=0;whiteSpace=wrap;html=1;" parent="1" vertex="1">
          <mxGeometry x="330" y="480" width="60" height="50" as="geometry" />
        </mxCell>
        <mxCell id="coLXJWwWkwuDFtRaaJJY-29" style="edgeStyle=orthogonalEdgeStyle;rounded=0;orthogonalLoop=1;jettySize=auto;html=1;exitX=0;exitY=0.5;exitDx=0;exitDy=0;entryX=1;entryY=0.5;entryDx=0;entryDy=0;endArrow=none;endFill=0;" parent="1" source="coLXJWwWkwuDFtRaaJJY-7" target="coLXJWwWkwuDFtRaaJJY-2" edge="1">
          <mxGeometry relative="1" as="geometry" />
        </mxCell>
        <mxCell id="coLXJWwWkwuDFtRaaJJY-7" value="ISP&lt;br&gt;RTR-L" style="rounded=0;whiteSpace=wrap;html=1;" parent="1" vertex="1">
          <mxGeometry x="209" y="480" width="60" height="50" as="geometry" />
        </mxCell>
        <mxCell id="coLXJWwWkwuDFtRaaJJY-9" value="RTR-R&lt;br&gt;WEB-R" style="rounded=0;whiteSpace=wrap;html=1;" parent="1" vertex="1">
          <mxGeometry x="570" y="480" width="60" height="50" as="geometry" />
        </mxCell>
        <mxCell id="coLXJWwWkwuDFtRaaJJY-12" value="ISP&lt;br&gt;RTR-R" style="rounded=0;whiteSpace=wrap;html=1;" parent="1" vertex="1">
          <mxGeometry x="450" y="480" width="60" height="50" as="geometry" />
        </mxCell>
        <mxCell id="coLXJWwWkwuDFtRaaJJY-18" value="VLAN 50" style="rounded=0;whiteSpace=wrap;html=1;" parent="1" vertex="1">
          <mxGeometry x="570" y="540" width="60" height="30" as="geometry" />
        </mxCell>
        <mxCell id="coLXJWwWkwuDFtRaaJJY-30" value="VLAN 30" style="rounded=0;whiteSpace=wrap;html=1;" parent="1" vertex="1">
          <mxGeometry x="450" y="540" width="60" height="30" as="geometry" />
        </mxCell>
        <mxCell id="coLXJWwWkwuDFtRaaJJY-31" value="VLAN 10" style="rounded=0;whiteSpace=wrap;html=1;" parent="1" vertex="1">
          <mxGeometry x="330" y="540" width="60" height="30" as="geometry" />
        </mxCell>
        <mxCell id="coLXJWwWkwuDFtRaaJJY-32" value="VLAN 20" style="rounded=0;whiteSpace=wrap;html=1;" parent="1" vertex="1">
          <mxGeometry x="209" y="540" width="60" height="30" as="geometry" />
        </mxCell>
        <mxCell id="coLXJWwWkwuDFtRaaJJY-33" value="VLAN 40" style="rounded=0;whiteSpace=wrap;html=1;" parent="1" vertex="1">
          <mxGeometry x="90" y="540" width="60" height="30" as="geometry" />
        </mxCell>
        <mxCell id="Tub7teVbrYojTSgn3kCz-1" value="Switch" style="rounded=0;whiteSpace=wrap;html=1;" parent="1" vertex="1">
          <mxGeometry x="70" y="315" width="60" height="30" as="geometry" />
        </mxCell>
      </root>
    </mxGraphModel>
  </diagram>
  <diagram name="zoopark" id="NN6svieegvJG6nb3pJIH">
    <mxGraphModel dx="2591" dy="799" grid="1" gridSize="10" guides="1" tooltips="1" connect="1" arrows="1" fold="1" page="1" pageScale="1" pageWidth="1169" pageHeight="1654" math="0" shadow="0">
      <root>
        <mxCell id="WQ6zJUxUwFgRDrmVzcBq-0" />
        <mxCell id="WQ6zJUxUwFgRDrmVzcBq-1" parent="WQ6zJUxUwFgRDrmVzcBq-0" />
        <mxCell id="qmWatNkSUABWpBOGUkub-198" value="" style="rounded=0;whiteSpace=wrap;html=1;fillColor=#d5e8d4;strokeColor=#82b366;gradientColor=#97d077;" parent="WQ6zJUxUwFgRDrmVzcBq-1" vertex="1">
          <mxGeometry x="-350" y="150" width="630" height="1220" as="geometry" />
        </mxCell>
        <mxCell id="qmWatNkSUABWpBOGUkub-199" value="" style="rounded=0;whiteSpace=wrap;html=1;fillColor=#f8cecc;strokeColor=#b85450;gradientColor=#ea6b66;" parent="WQ6zJUxUwFgRDrmVzcBq-1" vertex="1">
          <mxGeometry x="300" y="150" width="680" height="1220" as="geometry" />
        </mxCell>
        <mxCell id="qmWatNkSUABWpBOGUkub-8" value="" style="rounded=0;whiteSpace=wrap;html=1;fillColor=#fff2cc;strokeColor=#d6b656;gradientColor=#ffd966;" parent="WQ6zJUxUwFgRDrmVzcBq-1" vertex="1">
          <mxGeometry x="-990" y="150" width="620" height="1220" as="geometry" />
        </mxCell>
        <mxCell id="WQ6zJUxUwFgRDrmVzcBq-2" value="" style="rounded=0;whiteSpace=wrap;html=1;fillColor=#f5f5f5;strokeColor=#666666;fontColor=#333333;" parent="WQ6zJUxUwFgRDrmVzcBq-1" vertex="1">
          <mxGeometry x="-810" y="240" width="420" height="220" as="geometry" />
        </mxCell>
        <mxCell id="WQ6zJUxUwFgRDrmVzcBq-3" value="" style="rounded=0;whiteSpace=wrap;html=1;fillColor=#f8cecc;strokeColor=#b85450;" parent="WQ6zJUxUwFgRDrmVzcBq-1" vertex="1">
          <mxGeometry x="-730" y="350" width="160" height="90" as="geometry" />
        </mxCell>
        <mxCell id="WQ6zJUxUwFgRDrmVzcBq-8" style="edgeStyle=orthogonalEdgeStyle;rounded=0;orthogonalLoop=1;jettySize=auto;html=1;exitX=0.5;exitY=1;exitDx=0;exitDy=0;exitPerimeter=0;entryX=0.5;entryY=0;entryDx=0;entryDy=0;entryPerimeter=0;endArrow=none;endFill=0;" parent="WQ6zJUxUwFgRDrmVzcBq-1" source="WQ6zJUxUwFgRDrmVzcBq-10" target="WQ6zJUxUwFgRDrmVzcBq-16" edge="1">
          <mxGeometry relative="1" as="geometry">
            <Array as="points">
              <mxPoint x="-660" y="290" />
              <mxPoint x="-690" y="290" />
            </Array>
          </mxGeometry>
        </mxCell>
        <mxCell id="WQ6zJUxUwFgRDrmVzcBq-9" style="edgeStyle=orthogonalEdgeStyle;rounded=0;orthogonalLoop=1;jettySize=auto;html=1;exitX=0.5;exitY=0;exitDx=0;exitDy=0;exitPerimeter=0;entryX=0.5;entryY=1;entryDx=0;entryDy=0;entryPerimeter=0;endArrow=none;endFill=0;" parent="WQ6zJUxUwFgRDrmVzcBq-1" source="WQ6zJUxUwFgRDrmVzcBq-10" target="WQ6zJUxUwFgRDrmVzcBq-19" edge="1">
          <mxGeometry relative="1" as="geometry" />
        </mxCell>
        <mxCell id="JqiePsJtSWKBTMCCakV0-18" style="edgeStyle=orthogonalEdgeStyle;rounded=0;orthogonalLoop=1;jettySize=auto;html=1;exitX=1;exitY=0.5;exitDx=0;exitDy=0;exitPerimeter=0;entryX=0.5;entryY=0;entryDx=0;entryDy=0;entryPerimeter=0;endArrow=none;endFill=0;" parent="WQ6zJUxUwFgRDrmVzcBq-1" source="WQ6zJUxUwFgRDrmVzcBq-10" target="qmWatNkSUABWpBOGUkub-92" edge="1">
          <mxGeometry relative="1" as="geometry" />
        </mxCell>
        <mxCell id="JqiePsJtSWKBTMCCakV0-19" style="edgeStyle=orthogonalEdgeStyle;rounded=0;orthogonalLoop=1;jettySize=auto;html=1;exitX=1;exitY=0.5;exitDx=0;exitDy=0;exitPerimeter=0;entryX=0.5;entryY=0;entryDx=0;entryDy=0;entryPerimeter=0;endArrow=none;endFill=0;" parent="WQ6zJUxUwFgRDrmVzcBq-1" source="WQ6zJUxUwFgRDrmVzcBq-10" target="qmWatNkSUABWpBOGUkub-166" edge="1">
          <mxGeometry relative="1" as="geometry">
            <Array as="points">
              <mxPoint x="660" y="265" />
            </Array>
          </mxGeometry>
        </mxCell>
        <mxCell id="WQ6zJUxUwFgRDrmVzcBq-10" value="" style="shape=mxgraph.cisco.servers.standard_host;html=1;pointerEvents=1;dashed=0;fillColor=#036897;strokeColor=#ffffff;strokeWidth=2;verticalLabelPosition=bottom;verticalAlign=top;align=center;outlineConnect=0;rounded=0;" parent="WQ6zJUxUwFgRDrmVzcBq-1" vertex="1">
          <mxGeometry x="-739" y="250" width="160" height="30" as="geometry" />
        </mxCell>
        <mxCell id="gr1FdVvbDlomPn59inG7-8" style="edgeStyle=orthogonalEdgeStyle;rounded=0;orthogonalLoop=1;jettySize=auto;html=1;exitX=0.5;exitY=1;exitDx=0;exitDy=0;exitPerimeter=0;entryX=0.5;entryY=0;entryDx=0;entryDy=0;endArrow=none;endFill=0;" parent="WQ6zJUxUwFgRDrmVzcBq-1" source="WQ6zJUxUwFgRDrmVzcBq-16" target="gr1FdVvbDlomPn59inG7-3" edge="1">
          <mxGeometry relative="1" as="geometry" />
        </mxCell>
        <mxCell id="gr1FdVvbDlomPn59inG7-9" style="edgeStyle=orthogonalEdgeStyle;rounded=0;orthogonalLoop=1;jettySize=auto;html=1;exitX=0.5;exitY=1;exitDx=0;exitDy=0;exitPerimeter=0;entryX=0.5;entryY=0;entryDx=0;entryDy=0;endArrow=none;endFill=0;" parent="WQ6zJUxUwFgRDrmVzcBq-1" source="WQ6zJUxUwFgRDrmVzcBq-16" target="WQ6zJUxUwFgRDrmVzcBq-3" edge="1">
          <mxGeometry relative="1" as="geometry">
            <Array as="points">
              <mxPoint x="-510" y="340" />
              <mxPoint x="-650" y="340" />
            </Array>
          </mxGeometry>
        </mxCell>
        <mxCell id="WQ6zJUxUwFgRDrmVzcBq-16" value="" style="shape=mxgraph.cisco.routers.router;html=1;pointerEvents=1;dashed=0;fillColor=#036897;strokeColor=#ffffff;strokeWidth=2;verticalLabelPosition=bottom;verticalAlign=top;align=center;outlineConnect=0;rounded=0;" parent="WQ6zJUxUwFgRDrmVzcBq-1" vertex="1">
          <mxGeometry x="-549" y="295" width="78" height="40" as="geometry" />
        </mxCell>
        <mxCell id="WQ6zJUxUwFgRDrmVzcBq-17" value="Opensense" style="rounded=0;whiteSpace=wrap;html=1;" parent="WQ6zJUxUwFgRDrmVzcBq-1" vertex="1">
          <mxGeometry x="-469" y="295" width="70" height="30" as="geometry" />
        </mxCell>
        <mxCell id="WQ6zJUxUwFgRDrmVzcBq-18" value="VLAN 1" style="rounded=0;whiteSpace=wrap;html=1;" parent="WQ6zJUxUwFgRDrmVzcBq-1" vertex="1">
          <mxGeometry x="-684" y="300" width="50" height="30" as="geometry" />
        </mxCell>
        <mxCell id="WQ6zJUxUwFgRDrmVzcBq-19" value="" style="shape=mxgraph.cisco.hubs_and_gateways.small_hub;html=1;pointerEvents=1;dashed=0;fillColor=#036897;strokeColor=#ffffff;strokeWidth=2;verticalLabelPosition=bottom;verticalAlign=top;align=center;outlineConnect=0;rounded=0;" parent="WQ6zJUxUwFgRDrmVzcBq-1" vertex="1">
          <mxGeometry x="-739" y="190" width="160" height="40" as="geometry" />
        </mxCell>
        <mxCell id="WQ6zJUxUwFgRDrmVzcBq-33" value="Switch" style="rounded=0;whiteSpace=wrap;html=1;" parent="WQ6zJUxUwFgRDrmVzcBq-1" vertex="1">
          <mxGeometry x="-575" y="195" width="60" height="30" as="geometry" />
        </mxCell>
        <mxCell id="gr1FdVvbDlomPn59inG7-0" value="Nextcloud" style="rounded=0;whiteSpace=wrap;html=1;" parent="WQ6zJUxUwFgRDrmVzcBq-1" vertex="1">
          <mxGeometry x="-725" y="400" width="70" height="30" as="geometry" />
        </mxCell>
        <mxCell id="gr1FdVvbDlomPn59inG7-1" value="Gitea" style="rounded=0;whiteSpace=wrap;html=1;" parent="WQ6zJUxUwFgRDrmVzcBq-1" vertex="1">
          <mxGeometry x="-650" y="360" width="70" height="30" as="geometry" />
        </mxCell>
        <mxCell id="gr1FdVvbDlomPn59inG7-2" value="Nginx" style="rounded=0;whiteSpace=wrap;html=1;" parent="WQ6zJUxUwFgRDrmVzcBq-1" vertex="1">
          <mxGeometry x="-725" y="360" width="70" height="30" as="geometry" />
        </mxCell>
        <mxCell id="gr1FdVvbDlomPn59inG7-3" value="" style="rounded=0;whiteSpace=wrap;html=1;fillColor=#dae8fc;strokeColor=#6c8ebf;" parent="WQ6zJUxUwFgRDrmVzcBq-1" vertex="1">
          <mxGeometry x="-550" y="350" width="80" height="60" as="geometry" />
        </mxCell>
        <mxCell id="gr1FdVvbDlomPn59inG7-4" value="DC" style="rounded=0;whiteSpace=wrap;html=1;" parent="WQ6zJUxUwFgRDrmVzcBq-1" vertex="1">
          <mxGeometry x="-545" y="360" width="70" height="30" as="geometry" />
        </mxCell>
        <mxCell id="ZMNgLa6DLKtJGZJh7fJk-0" value="Drone" style="rounded=0;whiteSpace=wrap;html=1;" parent="WQ6zJUxUwFgRDrmVzcBq-1" vertex="1">
          <mxGeometry x="-650" y="400" width="70" height="30" as="geometry" />
        </mxCell>
        <mxCell id="nL7DdcJasbtOhzRjQ5uk-0" value="" style="shape=mxgraph.cisco.servers.standard_host;html=1;pointerEvents=1;dashed=0;fillColor=#036897;strokeColor=#ffffff;strokeWidth=2;verticalLabelPosition=bottom;verticalAlign=top;align=center;outlineConnect=0;rounded=0;" parent="WQ6zJUxUwFgRDrmVzcBq-1" vertex="1">
          <mxGeometry x="-660" y="770" width="160" height="30" as="geometry" />
        </mxCell>
        <mxCell id="nL7DdcJasbtOhzRjQ5uk-1" value="" style="shape=mxgraph.cisco.servers.standard_host;html=1;pointerEvents=1;dashed=0;fillColor=#036897;strokeColor=#ffffff;strokeWidth=2;verticalLabelPosition=bottom;verticalAlign=top;align=center;outlineConnect=0;rounded=0;" parent="WQ6zJUxUwFgRDrmVzcBq-1" vertex="1">
          <mxGeometry x="-660" y="810" width="160" height="30" as="geometry" />
        </mxCell>
        <mxCell id="nL7DdcJasbtOhzRjQ5uk-2" value="" style="shape=mxgraph.cisco.servers.standard_host;html=1;pointerEvents=1;dashed=0;fillColor=#036897;strokeColor=#ffffff;strokeWidth=2;verticalLabelPosition=bottom;verticalAlign=top;align=center;outlineConnect=0;rounded=0;" parent="WQ6zJUxUwFgRDrmVzcBq-1" vertex="1">
          <mxGeometry x="-660" y="690" width="160" height="30" as="geometry" />
        </mxCell>
        <mxCell id="nL7DdcJasbtOhzRjQ5uk-3" value="" style="shape=mxgraph.cisco.servers.standard_host;html=1;pointerEvents=1;dashed=0;fillColor=#036897;strokeColor=#ffffff;strokeWidth=2;verticalLabelPosition=bottom;verticalAlign=top;align=center;outlineConnect=0;rounded=0;" parent="WQ6zJUxUwFgRDrmVzcBq-1" vertex="1">
          <mxGeometry x="-660" y="730" width="160" height="30" as="geometry" />
        </mxCell>
        <mxCell id="nL7DdcJasbtOhzRjQ5uk-4" value="" style="shape=mxgraph.cisco.servers.standard_host;html=1;pointerEvents=1;dashed=0;fillColor=#036897;strokeColor=#ffffff;strokeWidth=2;verticalLabelPosition=bottom;verticalAlign=top;align=center;outlineConnect=0;rounded=0;" parent="WQ6zJUxUwFgRDrmVzcBq-1" vertex="1">
          <mxGeometry x="-660" y="610" width="160" height="30" as="geometry" />
        </mxCell>
        <mxCell id="nL7DdcJasbtOhzRjQ5uk-5" value="" style="shape=mxgraph.cisco.servers.standard_host;html=1;pointerEvents=1;dashed=0;fillColor=#036897;strokeColor=#ffffff;strokeWidth=2;verticalLabelPosition=bottom;verticalAlign=top;align=center;outlineConnect=0;rounded=0;" parent="WQ6zJUxUwFgRDrmVzcBq-1" vertex="1">
          <mxGeometry x="-660" y="650" width="160" height="30" as="geometry" />
        </mxCell>
        <mxCell id="nL7DdcJasbtOhzRjQ5uk-6" value="" style="shape=mxgraph.cisco.servers.standard_host;html=1;pointerEvents=1;dashed=0;fillColor=#036897;strokeColor=#ffffff;strokeWidth=2;verticalLabelPosition=bottom;verticalAlign=top;align=center;outlineConnect=0;rounded=0;" parent="WQ6zJUxUwFgRDrmVzcBq-1" vertex="1">
          <mxGeometry x="-660" y="530" width="160" height="30" as="geometry" />
        </mxCell>
        <mxCell id="nL7DdcJasbtOhzRjQ5uk-7" value="" style="shape=mxgraph.cisco.servers.standard_host;html=1;pointerEvents=1;dashed=0;fillColor=#036897;strokeColor=#ffffff;strokeWidth=2;verticalLabelPosition=bottom;verticalAlign=top;align=center;outlineConnect=0;rounded=0;" parent="WQ6zJUxUwFgRDrmVzcBq-1" vertex="1">
          <mxGeometry x="-660" y="570" width="160" height="30" as="geometry" />
        </mxCell>
        <mxCell id="nL7DdcJasbtOhzRjQ5uk-8" value="" style="shape=mxgraph.cisco.servers.standard_host;html=1;pointerEvents=1;dashed=0;fillColor=#036897;strokeColor=#ffffff;strokeWidth=2;verticalLabelPosition=bottom;verticalAlign=top;align=center;outlineConnect=0;rounded=0;" parent="WQ6zJUxUwFgRDrmVzcBq-1" vertex="1">
          <mxGeometry x="-860" y="770" width="160" height="30" as="geometry" />
        </mxCell>
        <mxCell id="nL7DdcJasbtOhzRjQ5uk-9" value="" style="shape=mxgraph.cisco.servers.standard_host;html=1;pointerEvents=1;dashed=0;fillColor=#036897;strokeColor=#ffffff;strokeWidth=2;verticalLabelPosition=bottom;verticalAlign=top;align=center;outlineConnect=0;rounded=0;" parent="WQ6zJUxUwFgRDrmVzcBq-1" vertex="1">
          <mxGeometry x="-860" y="810" width="160" height="30" as="geometry" />
        </mxCell>
        <mxCell id="nL7DdcJasbtOhzRjQ5uk-10" value="" style="shape=mxgraph.cisco.servers.standard_host;html=1;pointerEvents=1;dashed=0;fillColor=#036897;strokeColor=#ffffff;strokeWidth=2;verticalLabelPosition=bottom;verticalAlign=top;align=center;outlineConnect=0;rounded=0;" parent="WQ6zJUxUwFgRDrmVzcBq-1" vertex="1">
          <mxGeometry x="-860" y="690" width="160" height="30" as="geometry" />
        </mxCell>
        <mxCell id="nL7DdcJasbtOhzRjQ5uk-11" value="" style="shape=mxgraph.cisco.servers.standard_host;html=1;pointerEvents=1;dashed=0;fillColor=#036897;strokeColor=#ffffff;strokeWidth=2;verticalLabelPosition=bottom;verticalAlign=top;align=center;outlineConnect=0;rounded=0;" parent="WQ6zJUxUwFgRDrmVzcBq-1" vertex="1">
          <mxGeometry x="-860" y="730" width="160" height="30" as="geometry" />
        </mxCell>
        <mxCell id="nL7DdcJasbtOhzRjQ5uk-12" value="" style="shape=mxgraph.cisco.servers.standard_host;html=1;pointerEvents=1;dashed=0;fillColor=#036897;strokeColor=#ffffff;strokeWidth=2;verticalLabelPosition=bottom;verticalAlign=top;align=center;outlineConnect=0;rounded=0;" parent="WQ6zJUxUwFgRDrmVzcBq-1" vertex="1">
          <mxGeometry x="-860" y="610" width="160" height="30" as="geometry" />
        </mxCell>
        <mxCell id="nL7DdcJasbtOhzRjQ5uk-13" value="" style="shape=mxgraph.cisco.servers.standard_host;html=1;pointerEvents=1;dashed=0;fillColor=#036897;strokeColor=#ffffff;strokeWidth=2;verticalLabelPosition=bottom;verticalAlign=top;align=center;outlineConnect=0;rounded=0;" parent="WQ6zJUxUwFgRDrmVzcBq-1" vertex="1">
          <mxGeometry x="-860" y="650" width="160" height="30" as="geometry" />
        </mxCell>
        <mxCell id="nL7DdcJasbtOhzRjQ5uk-15" value="" style="shape=mxgraph.cisco.servers.standard_host;html=1;pointerEvents=1;dashed=0;fillColor=#036897;strokeColor=#ffffff;strokeWidth=2;verticalLabelPosition=bottom;verticalAlign=top;align=center;outlineConnect=0;rounded=0;" parent="WQ6zJUxUwFgRDrmVzcBq-1" vertex="1">
          <mxGeometry x="-860" y="570" width="160" height="30" as="geometry" />
        </mxCell>
        <mxCell id="nL7DdcJasbtOhzRjQ5uk-16" style="edgeStyle=orthogonalEdgeStyle;rounded=0;orthogonalLoop=1;jettySize=auto;html=1;exitX=0;exitY=0.5;exitDx=0;exitDy=0;exitPerimeter=0;entryX=0;entryY=0.5;entryDx=0;entryDy=0;entryPerimeter=0;endArrow=none;endFill=0;" parent="WQ6zJUxUwFgRDrmVzcBq-1" source="nL7DdcJasbtOhzRjQ5uk-31" target="nL7DdcJasbtOhzRjQ5uk-6" edge="1">
          <mxGeometry relative="1" as="geometry" />
        </mxCell>
        <mxCell id="nL7DdcJasbtOhzRjQ5uk-17" style="edgeStyle=orthogonalEdgeStyle;rounded=0;orthogonalLoop=1;jettySize=auto;html=1;exitX=0;exitY=0.5;exitDx=0;exitDy=0;exitPerimeter=0;entryX=1;entryY=0.5;entryDx=0;entryDy=0;entryPerimeter=0;endArrow=none;endFill=0;" parent="WQ6zJUxUwFgRDrmVzcBq-1" source="nL7DdcJasbtOhzRjQ5uk-31" target="nL7DdcJasbtOhzRjQ5uk-15" edge="1">
          <mxGeometry relative="1" as="geometry" />
        </mxCell>
        <mxCell id="nL7DdcJasbtOhzRjQ5uk-18" style="edgeStyle=orthogonalEdgeStyle;rounded=0;orthogonalLoop=1;jettySize=auto;html=1;exitX=0;exitY=0.5;exitDx=0;exitDy=0;exitPerimeter=0;entryX=0;entryY=0.5;entryDx=0;entryDy=0;entryPerimeter=0;endArrow=none;endFill=0;" parent="WQ6zJUxUwFgRDrmVzcBq-1" source="nL7DdcJasbtOhzRjQ5uk-31" target="nL7DdcJasbtOhzRjQ5uk-7" edge="1">
          <mxGeometry relative="1" as="geometry" />
        </mxCell>
        <mxCell id="nL7DdcJasbtOhzRjQ5uk-19" style="edgeStyle=orthogonalEdgeStyle;rounded=0;orthogonalLoop=1;jettySize=auto;html=1;exitX=0;exitY=0.5;exitDx=0;exitDy=0;exitPerimeter=0;entryX=0;entryY=0.5;entryDx=0;entryDy=0;entryPerimeter=0;endArrow=none;endFill=0;" parent="WQ6zJUxUwFgRDrmVzcBq-1" source="nL7DdcJasbtOhzRjQ5uk-31" target="nL7DdcJasbtOhzRjQ5uk-4" edge="1">
          <mxGeometry relative="1" as="geometry" />
        </mxCell>
        <mxCell id="nL7DdcJasbtOhzRjQ5uk-20" style="edgeStyle=orthogonalEdgeStyle;rounded=0;orthogonalLoop=1;jettySize=auto;html=1;exitX=0;exitY=0.5;exitDx=0;exitDy=0;exitPerimeter=0;entryX=0;entryY=0.5;entryDx=0;entryDy=0;entryPerimeter=0;endArrow=none;endFill=0;" parent="WQ6zJUxUwFgRDrmVzcBq-1" source="nL7DdcJasbtOhzRjQ5uk-31" target="nL7DdcJasbtOhzRjQ5uk-5" edge="1">
          <mxGeometry relative="1" as="geometry" />
        </mxCell>
        <mxCell id="nL7DdcJasbtOhzRjQ5uk-21" style="edgeStyle=orthogonalEdgeStyle;rounded=0;orthogonalLoop=1;jettySize=auto;html=1;exitX=0;exitY=0.5;exitDx=0;exitDy=0;exitPerimeter=0;entryX=0;entryY=0.5;entryDx=0;entryDy=0;entryPerimeter=0;endArrow=none;endFill=0;" parent="WQ6zJUxUwFgRDrmVzcBq-1" source="nL7DdcJasbtOhzRjQ5uk-31" target="nL7DdcJasbtOhzRjQ5uk-2" edge="1">
          <mxGeometry relative="1" as="geometry" />
        </mxCell>
        <mxCell id="nL7DdcJasbtOhzRjQ5uk-22" style="edgeStyle=orthogonalEdgeStyle;rounded=0;orthogonalLoop=1;jettySize=auto;html=1;exitX=0;exitY=0.5;exitDx=0;exitDy=0;exitPerimeter=0;entryX=0;entryY=0.5;entryDx=0;entryDy=0;entryPerimeter=0;endArrow=none;endFill=0;" parent="WQ6zJUxUwFgRDrmVzcBq-1" source="nL7DdcJasbtOhzRjQ5uk-31" target="nL7DdcJasbtOhzRjQ5uk-3" edge="1">
          <mxGeometry relative="1" as="geometry" />
        </mxCell>
        <mxCell id="nL7DdcJasbtOhzRjQ5uk-23" style="edgeStyle=orthogonalEdgeStyle;rounded=0;orthogonalLoop=1;jettySize=auto;html=1;exitX=0;exitY=0.5;exitDx=0;exitDy=0;exitPerimeter=0;entryX=0;entryY=0.5;entryDx=0;entryDy=0;entryPerimeter=0;endArrow=none;endFill=0;" parent="WQ6zJUxUwFgRDrmVzcBq-1" source="nL7DdcJasbtOhzRjQ5uk-31" target="nL7DdcJasbtOhzRjQ5uk-0" edge="1">
          <mxGeometry relative="1" as="geometry" />
        </mxCell>
        <mxCell id="nL7DdcJasbtOhzRjQ5uk-24" style="edgeStyle=orthogonalEdgeStyle;rounded=0;orthogonalLoop=1;jettySize=auto;html=1;exitX=0;exitY=0.5;exitDx=0;exitDy=0;exitPerimeter=0;entryX=0;entryY=0.5;entryDx=0;entryDy=0;entryPerimeter=0;endArrow=none;endFill=0;" parent="WQ6zJUxUwFgRDrmVzcBq-1" source="nL7DdcJasbtOhzRjQ5uk-31" target="nL7DdcJasbtOhzRjQ5uk-1" edge="1">
          <mxGeometry relative="1" as="geometry" />
        </mxCell>
        <mxCell id="nL7DdcJasbtOhzRjQ5uk-25" style="edgeStyle=orthogonalEdgeStyle;rounded=0;orthogonalLoop=1;jettySize=auto;html=1;exitX=0;exitY=0.5;exitDx=0;exitDy=0;exitPerimeter=0;entryX=1;entryY=0.5;entryDx=0;entryDy=0;entryPerimeter=0;endArrow=none;endFill=0;" parent="WQ6zJUxUwFgRDrmVzcBq-1" source="nL7DdcJasbtOhzRjQ5uk-31" target="nL7DdcJasbtOhzRjQ5uk-12" edge="1">
          <mxGeometry relative="1" as="geometry" />
        </mxCell>
        <mxCell id="nL7DdcJasbtOhzRjQ5uk-26" style="edgeStyle=orthogonalEdgeStyle;rounded=0;orthogonalLoop=1;jettySize=auto;html=1;exitX=0;exitY=0.5;exitDx=0;exitDy=0;exitPerimeter=0;entryX=1;entryY=0.5;entryDx=0;entryDy=0;entryPerimeter=0;endArrow=none;endFill=0;" parent="WQ6zJUxUwFgRDrmVzcBq-1" source="nL7DdcJasbtOhzRjQ5uk-31" target="nL7DdcJasbtOhzRjQ5uk-13" edge="1">
          <mxGeometry relative="1" as="geometry" />
        </mxCell>
        <mxCell id="nL7DdcJasbtOhzRjQ5uk-27" style="edgeStyle=orthogonalEdgeStyle;rounded=0;orthogonalLoop=1;jettySize=auto;html=1;exitX=0;exitY=0.5;exitDx=0;exitDy=0;exitPerimeter=0;entryX=1;entryY=0.5;entryDx=0;entryDy=0;entryPerimeter=0;endArrow=none;endFill=0;" parent="WQ6zJUxUwFgRDrmVzcBq-1" source="nL7DdcJasbtOhzRjQ5uk-31" target="nL7DdcJasbtOhzRjQ5uk-10" edge="1">
          <mxGeometry relative="1" as="geometry" />
        </mxCell>
        <mxCell id="nL7DdcJasbtOhzRjQ5uk-28" style="edgeStyle=orthogonalEdgeStyle;rounded=0;orthogonalLoop=1;jettySize=auto;html=1;exitX=0;exitY=0.5;exitDx=0;exitDy=0;exitPerimeter=0;entryX=1;entryY=0.5;entryDx=0;entryDy=0;entryPerimeter=0;endArrow=none;endFill=0;" parent="WQ6zJUxUwFgRDrmVzcBq-1" source="nL7DdcJasbtOhzRjQ5uk-31" target="nL7DdcJasbtOhzRjQ5uk-11" edge="1">
          <mxGeometry relative="1" as="geometry" />
        </mxCell>
        <mxCell id="nL7DdcJasbtOhzRjQ5uk-29" style="edgeStyle=orthogonalEdgeStyle;rounded=0;orthogonalLoop=1;jettySize=auto;html=1;exitX=0;exitY=0.5;exitDx=0;exitDy=0;exitPerimeter=0;entryX=1;entryY=0.5;entryDx=0;entryDy=0;entryPerimeter=0;endArrow=none;endFill=0;" parent="WQ6zJUxUwFgRDrmVzcBq-1" source="nL7DdcJasbtOhzRjQ5uk-31" target="nL7DdcJasbtOhzRjQ5uk-8" edge="1">
          <mxGeometry relative="1" as="geometry" />
        </mxCell>
        <mxCell id="nL7DdcJasbtOhzRjQ5uk-30" style="edgeStyle=orthogonalEdgeStyle;rounded=0;orthogonalLoop=1;jettySize=auto;html=1;exitX=0;exitY=0.5;exitDx=0;exitDy=0;exitPerimeter=0;entryX=1;entryY=0.5;entryDx=0;entryDy=0;entryPerimeter=0;endArrow=none;endFill=0;" parent="WQ6zJUxUwFgRDrmVzcBq-1" source="nL7DdcJasbtOhzRjQ5uk-31" target="nL7DdcJasbtOhzRjQ5uk-9" edge="1">
          <mxGeometry relative="1" as="geometry" />
        </mxCell>
        <mxCell id="qmWatNkSUABWpBOGUkub-6" style="edgeStyle=orthogonalEdgeStyle;rounded=0;orthogonalLoop=1;jettySize=auto;html=1;exitX=0;exitY=0.5;exitDx=0;exitDy=0;exitPerimeter=0;entryX=0;entryY=0.5;entryDx=0;entryDy=0;entryPerimeter=0;endArrow=none;endFill=0;" parent="WQ6zJUxUwFgRDrmVzcBq-1" source="nL7DdcJasbtOhzRjQ5uk-31" target="e6fJmapkV2s11m2w5oPW-5" edge="1">
          <mxGeometry relative="1" as="geometry">
            <Array as="points">
              <mxPoint x="-970" y="500" />
              <mxPoint x="-970" y="1000" />
            </Array>
          </mxGeometry>
        </mxCell>
        <mxCell id="qmWatNkSUABWpBOGUkub-11" style="edgeStyle=orthogonalEdgeStyle;rounded=0;orthogonalLoop=1;jettySize=auto;html=1;exitX=0;exitY=0.5;exitDx=0;exitDy=0;exitPerimeter=0;entryX=0.5;entryY=0;entryDx=0;entryDy=0;entryPerimeter=0;endArrow=none;endFill=0;" parent="WQ6zJUxUwFgRDrmVzcBq-1" source="nL7DdcJasbtOhzRjQ5uk-31" target="WQ6zJUxUwFgRDrmVzcBq-19" edge="1">
          <mxGeometry relative="1" as="geometry">
            <Array as="points">
              <mxPoint x="-970" y="500" />
              <mxPoint x="-970" y="170" />
              <mxPoint x="-659" y="170" />
            </Array>
          </mxGeometry>
        </mxCell>
        <mxCell id="nL7DdcJasbtOhzRjQ5uk-31" value="" style="shape=mxgraph.cisco.hubs_and_gateways.small_hub;html=1;pointerEvents=1;dashed=0;fillColor=#036897;strokeColor=#ffffff;strokeWidth=2;verticalLabelPosition=bottom;verticalAlign=top;align=center;outlineConnect=0;rounded=0;" parent="WQ6zJUxUwFgRDrmVzcBq-1" vertex="1">
          <mxGeometry x="-660" y="480" width="160" height="40" as="geometry" />
        </mxCell>
        <mxCell id="nL7DdcJasbtOhzRjQ5uk-33" value="VLAN 2" style="rounded=0;whiteSpace=wrap;html=1;" parent="WQ6zJUxUwFgRDrmVzcBq-1" vertex="1">
          <mxGeometry x="-920" y="570" width="60" height="30" as="geometry" />
        </mxCell>
        <mxCell id="nL7DdcJasbtOhzRjQ5uk-34" value="VLAN 9" style="rounded=0;whiteSpace=wrap;html=1;" parent="WQ6zJUxUwFgRDrmVzcBq-1" vertex="1">
          <mxGeometry x="-500" y="530" width="60" height="30" as="geometry" />
        </mxCell>
        <mxCell id="nL7DdcJasbtOhzRjQ5uk-36" value="Switch" style="rounded=0;whiteSpace=wrap;html=1;" parent="WQ6zJUxUwFgRDrmVzcBq-1" vertex="1">
          <mxGeometry x="-500" y="480" width="60" height="30" as="geometry" />
        </mxCell>
        <mxCell id="e6fJmapkV2s11m2w5oPW-0" style="edgeStyle=orthogonalEdgeStyle;rounded=0;orthogonalLoop=1;jettySize=auto;html=1;exitX=0.5;exitY=1;exitDx=0;exitDy=0;exitPerimeter=0;entryX=0.83;entryY=0.5;entryDx=0;entryDy=0;entryPerimeter=0;endArrow=none;endFill=0;" parent="WQ6zJUxUwFgRDrmVzcBq-1" source="e6fJmapkV2s11m2w5oPW-5" target="e6fJmapkV2s11m2w5oPW-7" edge="1">
          <mxGeometry relative="1" as="geometry">
            <Array as="points">
              <mxPoint x="-690" y="1000" />
              <mxPoint x="-870" y="1000" />
              <mxPoint x="-870" y="1060" />
            </Array>
          </mxGeometry>
        </mxCell>
        <mxCell id="e6fJmapkV2s11m2w5oPW-1" style="edgeStyle=orthogonalEdgeStyle;rounded=0;orthogonalLoop=1;jettySize=auto;html=1;exitX=0.5;exitY=1;exitDx=0;exitDy=0;exitPerimeter=0;entryX=0.16;entryY=0.5;entryDx=0;entryDy=0;entryPerimeter=0;endArrow=none;endFill=0;" parent="WQ6zJUxUwFgRDrmVzcBq-1" source="e6fJmapkV2s11m2w5oPW-5" target="e6fJmapkV2s11m2w5oPW-21" edge="1">
          <mxGeometry relative="1" as="geometry">
            <Array as="points">
              <mxPoint x="-690" y="1000" />
              <mxPoint x="-510" y="1000" />
              <mxPoint x="-510" y="1060" />
            </Array>
          </mxGeometry>
        </mxCell>
        <mxCell id="e6fJmapkV2s11m2w5oPW-2" style="edgeStyle=orthogonalEdgeStyle;rounded=0;orthogonalLoop=1;jettySize=auto;html=1;exitX=0.5;exitY=1;exitDx=0;exitDy=0;exitPerimeter=0;entryX=0.83;entryY=0.5;entryDx=0;entryDy=0;entryPerimeter=0;endArrow=none;endFill=0;" parent="WQ6zJUxUwFgRDrmVzcBq-1" source="e6fJmapkV2s11m2w5oPW-5" target="e6fJmapkV2s11m2w5oPW-10" edge="1">
          <mxGeometry relative="1" as="geometry">
            <Array as="points">
              <mxPoint x="-690" y="1000" />
              <mxPoint x="-630" y="1000" />
              <mxPoint x="-630" y="1060" />
            </Array>
          </mxGeometry>
        </mxCell>
        <mxCell id="e6fJmapkV2s11m2w5oPW-3" style="edgeStyle=orthogonalEdgeStyle;rounded=0;orthogonalLoop=1;jettySize=auto;html=1;exitX=0.5;exitY=1;exitDx=0;exitDy=0;exitPerimeter=0;entryX=0.83;entryY=0.5;entryDx=0;entryDy=0;entryPerimeter=0;endArrow=none;endFill=0;" parent="WQ6zJUxUwFgRDrmVzcBq-1" source="e6fJmapkV2s11m2w5oPW-5" target="e6fJmapkV2s11m2w5oPW-17" edge="1">
          <mxGeometry relative="1" as="geometry">
            <Array as="points">
              <mxPoint x="-690" y="1000" />
              <mxPoint x="-630" y="1000" />
              <mxPoint x="-630" y="1180" />
            </Array>
          </mxGeometry>
        </mxCell>
        <mxCell id="e6fJmapkV2s11m2w5oPW-4" style="edgeStyle=orthogonalEdgeStyle;rounded=0;orthogonalLoop=1;jettySize=auto;html=1;exitX=0.5;exitY=1;exitDx=0;exitDy=0;exitPerimeter=0;endArrow=none;endFill=0;" parent="WQ6zJUxUwFgRDrmVzcBq-1" source="e6fJmapkV2s11m2w5oPW-5" target="e6fJmapkV2s11m2w5oPW-34" edge="1">
          <mxGeometry relative="1" as="geometry">
            <Array as="points">
              <mxPoint x="-690" y="1000" />
              <mxPoint x="-570" y="1000" />
              <mxPoint x="-570" y="900" />
            </Array>
          </mxGeometry>
        </mxCell>
        <mxCell id="e6fJmapkV2s11m2w5oPW-5" value="" style="shape=mxgraph.cisco.hubs_and_gateways.small_hub;html=1;pointerEvents=1;dashed=0;fillColor=#036897;strokeColor=#ffffff;strokeWidth=2;verticalLabelPosition=bottom;verticalAlign=top;align=center;outlineConnect=0;rounded=0;" parent="WQ6zJUxUwFgRDrmVzcBq-1" vertex="1">
          <mxGeometry x="-770" y="940" width="160" height="40" as="geometry" />
        </mxCell>
        <mxCell id="e6fJmapkV2s11m2w5oPW-6" value="Switch" style="rounded=0;whiteSpace=wrap;html=1;" parent="WQ6zJUxUwFgRDrmVzcBq-1" vertex="1">
          <mxGeometry x="-838" y="945" width="60" height="30" as="geometry" />
        </mxCell>
        <mxCell id="e6fJmapkV2s11m2w5oPW-7" value="" style="shape=mxgraph.cisco.computers_and_peripherals.pc;html=1;pointerEvents=1;dashed=0;fillColor=#036897;strokeColor=#ffffff;strokeWidth=2;verticalLabelPosition=bottom;verticalAlign=top;align=center;outlineConnect=0;rounded=0;" parent="WQ6zJUxUwFgRDrmVzcBq-1" vertex="1">
          <mxGeometry x="-970" y="1020" width="80" height="80" as="geometry" />
        </mxCell>
        <mxCell id="e6fJmapkV2s11m2w5oPW-8" style="edgeStyle=orthogonalEdgeStyle;rounded=0;orthogonalLoop=1;jettySize=auto;html=1;exitX=0.16;exitY=0.5;exitDx=0;exitDy=0;exitPerimeter=0;entryX=0.5;entryY=1;entryDx=0;entryDy=0;entryPerimeter=0;endArrow=none;endFill=0;" parent="WQ6zJUxUwFgRDrmVzcBq-1" source="e6fJmapkV2s11m2w5oPW-9" target="e6fJmapkV2s11m2w5oPW-5" edge="1">
          <mxGeometry relative="1" as="geometry">
            <Array as="points">
              <mxPoint x="-870" y="1060" />
              <mxPoint x="-870" y="1000" />
              <mxPoint x="-690" y="1000" />
            </Array>
          </mxGeometry>
        </mxCell>
        <mxCell id="e6fJmapkV2s11m2w5oPW-9" value="" style="shape=mxgraph.cisco.computers_and_peripherals.pc;html=1;pointerEvents=1;dashed=0;fillColor=#036897;strokeColor=#ffffff;strokeWidth=2;verticalLabelPosition=bottom;verticalAlign=top;align=center;outlineConnect=0;rounded=0;" parent="WQ6zJUxUwFgRDrmVzcBq-1" vertex="1">
          <mxGeometry x="-850" y="1020" width="80" height="80" as="geometry" />
        </mxCell>
        <mxCell id="e6fJmapkV2s11m2w5oPW-10" value="" style="shape=mxgraph.cisco.computers_and_peripherals.pc;html=1;pointerEvents=1;dashed=0;fillColor=#036897;strokeColor=#ffffff;strokeWidth=2;verticalLabelPosition=bottom;verticalAlign=top;align=center;outlineConnect=0;rounded=0;" parent="WQ6zJUxUwFgRDrmVzcBq-1" vertex="1">
          <mxGeometry x="-730" y="1020" width="80" height="80" as="geometry" />
        </mxCell>
        <mxCell id="e6fJmapkV2s11m2w5oPW-11" style="edgeStyle=orthogonalEdgeStyle;rounded=0;orthogonalLoop=1;jettySize=auto;html=1;exitX=0.83;exitY=0.5;exitDx=0;exitDy=0;exitPerimeter=0;entryX=0.5;entryY=1;entryDx=0;entryDy=0;entryPerimeter=0;endArrow=none;endFill=0;" parent="WQ6zJUxUwFgRDrmVzcBq-1" source="e6fJmapkV2s11m2w5oPW-12" target="e6fJmapkV2s11m2w5oPW-5" edge="1">
          <mxGeometry relative="1" as="geometry">
            <Array as="points">
              <mxPoint x="-510" y="1060" />
              <mxPoint x="-510" y="1000" />
              <mxPoint x="-690" y="1000" />
            </Array>
          </mxGeometry>
        </mxCell>
        <mxCell id="e6fJmapkV2s11m2w5oPW-12" value="" style="shape=mxgraph.cisco.computers_and_peripherals.pc;html=1;pointerEvents=1;dashed=0;fillColor=#036897;strokeColor=#ffffff;strokeWidth=2;verticalLabelPosition=bottom;verticalAlign=top;align=center;outlineConnect=0;rounded=0;" parent="WQ6zJUxUwFgRDrmVzcBq-1" vertex="1">
          <mxGeometry x="-610" y="1020" width="80" height="80" as="geometry" />
        </mxCell>
        <mxCell id="e6fJmapkV2s11m2w5oPW-13" style="edgeStyle=orthogonalEdgeStyle;rounded=0;orthogonalLoop=1;jettySize=auto;html=1;exitX=0.83;exitY=0.5;exitDx=0;exitDy=0;exitPerimeter=0;entryX=0.5;entryY=1;entryDx=0;entryDy=0;entryPerimeter=0;endArrow=none;endFill=0;" parent="WQ6zJUxUwFgRDrmVzcBq-1" source="e6fJmapkV2s11m2w5oPW-14" target="e6fJmapkV2s11m2w5oPW-5" edge="1">
          <mxGeometry relative="1" as="geometry">
            <Array as="points">
              <mxPoint x="-870" y="1180" />
              <mxPoint x="-870" y="1000" />
              <mxPoint x="-690" y="1000" />
            </Array>
          </mxGeometry>
        </mxCell>
        <mxCell id="e6fJmapkV2s11m2w5oPW-14" value="" style="shape=mxgraph.cisco.computers_and_peripherals.pc;html=1;pointerEvents=1;dashed=0;fillColor=#036897;strokeColor=#ffffff;strokeWidth=2;verticalLabelPosition=bottom;verticalAlign=top;align=center;outlineConnect=0;rounded=0;" parent="WQ6zJUxUwFgRDrmVzcBq-1" vertex="1">
          <mxGeometry x="-970" y="1140" width="80" height="80" as="geometry" />
        </mxCell>
        <mxCell id="e6fJmapkV2s11m2w5oPW-15" style="edgeStyle=orthogonalEdgeStyle;rounded=0;orthogonalLoop=1;jettySize=auto;html=1;exitX=0.16;exitY=0.5;exitDx=0;exitDy=0;exitPerimeter=0;entryX=0.5;entryY=1;entryDx=0;entryDy=0;entryPerimeter=0;endArrow=none;endFill=0;" parent="WQ6zJUxUwFgRDrmVzcBq-1" source="e6fJmapkV2s11m2w5oPW-16" target="e6fJmapkV2s11m2w5oPW-5" edge="1">
          <mxGeometry relative="1" as="geometry">
            <Array as="points">
              <mxPoint x="-870" y="1180" />
              <mxPoint x="-870" y="1000" />
              <mxPoint x="-690" y="1000" />
            </Array>
          </mxGeometry>
        </mxCell>
        <mxCell id="e6fJmapkV2s11m2w5oPW-16" value="" style="shape=mxgraph.cisco.computers_and_peripherals.pc;html=1;pointerEvents=1;dashed=0;fillColor=#036897;strokeColor=#ffffff;strokeWidth=2;verticalLabelPosition=bottom;verticalAlign=top;align=center;outlineConnect=0;rounded=0;" parent="WQ6zJUxUwFgRDrmVzcBq-1" vertex="1">
          <mxGeometry x="-850" y="1140" width="80" height="80" as="geometry" />
        </mxCell>
        <mxCell id="e6fJmapkV2s11m2w5oPW-17" value="" style="shape=mxgraph.cisco.computers_and_peripherals.pc;html=1;pointerEvents=1;dashed=0;fillColor=#036897;strokeColor=#ffffff;strokeWidth=2;verticalLabelPosition=bottom;verticalAlign=top;align=center;outlineConnect=0;rounded=0;" parent="WQ6zJUxUwFgRDrmVzcBq-1" vertex="1">
          <mxGeometry x="-730" y="1140" width="80" height="80" as="geometry" />
        </mxCell>
        <mxCell id="e6fJmapkV2s11m2w5oPW-18" style="edgeStyle=orthogonalEdgeStyle;rounded=0;orthogonalLoop=1;jettySize=auto;html=1;exitX=0.83;exitY=0.5;exitDx=0;exitDy=0;exitPerimeter=0;entryX=0.5;entryY=1;entryDx=0;entryDy=0;entryPerimeter=0;endArrow=none;endFill=0;" parent="WQ6zJUxUwFgRDrmVzcBq-1" source="e6fJmapkV2s11m2w5oPW-19" target="e6fJmapkV2s11m2w5oPW-5" edge="1">
          <mxGeometry relative="1" as="geometry">
            <Array as="points">
              <mxPoint x="-510" y="1180" />
              <mxPoint x="-510" y="1000" />
              <mxPoint x="-690" y="1000" />
            </Array>
          </mxGeometry>
        </mxCell>
        <mxCell id="e6fJmapkV2s11m2w5oPW-19" value="" style="shape=mxgraph.cisco.computers_and_peripherals.pc;html=1;pointerEvents=1;dashed=0;fillColor=#036897;strokeColor=#ffffff;strokeWidth=2;verticalLabelPosition=bottom;verticalAlign=top;align=center;outlineConnect=0;rounded=0;" parent="WQ6zJUxUwFgRDrmVzcBq-1" vertex="1">
          <mxGeometry x="-610" y="1140" width="80" height="80" as="geometry" />
        </mxCell>
        <mxCell id="e6fJmapkV2s11m2w5oPW-20" value="VLAN 2" style="rounded=0;whiteSpace=wrap;html=1;" parent="WQ6zJUxUwFgRDrmVzcBq-1" vertex="1">
          <mxGeometry x="-970" y="1100" width="80" height="20" as="geometry" />
        </mxCell>
        <mxCell id="e6fJmapkV2s11m2w5oPW-21" value="" style="shape=mxgraph.cisco.computers_and_peripherals.pc;html=1;pointerEvents=1;dashed=0;fillColor=#036897;strokeColor=#ffffff;strokeWidth=2;verticalLabelPosition=bottom;verticalAlign=top;align=center;outlineConnect=0;rounded=0;" parent="WQ6zJUxUwFgRDrmVzcBq-1" vertex="1">
          <mxGeometry x="-490" y="1020" width="80" height="80" as="geometry" />
        </mxCell>
        <mxCell id="e6fJmapkV2s11m2w5oPW-22" style="edgeStyle=orthogonalEdgeStyle;rounded=0;orthogonalLoop=1;jettySize=auto;html=1;exitX=0.16;exitY=0.5;exitDx=0;exitDy=0;exitPerimeter=0;entryX=0.5;entryY=1;entryDx=0;entryDy=0;entryPerimeter=0;endArrow=none;endFill=0;" parent="WQ6zJUxUwFgRDrmVzcBq-1" source="e6fJmapkV2s11m2w5oPW-23" target="e6fJmapkV2s11m2w5oPW-5" edge="1">
          <mxGeometry relative="1" as="geometry">
            <Array as="points">
              <mxPoint x="-510" y="1180" />
              <mxPoint x="-510" y="1000" />
              <mxPoint x="-690" y="1000" />
            </Array>
          </mxGeometry>
        </mxCell>
        <mxCell id="e6fJmapkV2s11m2w5oPW-23" value="" style="shape=mxgraph.cisco.computers_and_peripherals.pc;html=1;pointerEvents=1;dashed=0;fillColor=#036897;strokeColor=#ffffff;strokeWidth=2;verticalLabelPosition=bottom;verticalAlign=top;align=center;outlineConnect=0;rounded=0;" parent="WQ6zJUxUwFgRDrmVzcBq-1" vertex="1">
          <mxGeometry x="-490" y="1140" width="80" height="80" as="geometry" />
        </mxCell>
        <mxCell id="e6fJmapkV2s11m2w5oPW-24" style="edgeStyle=orthogonalEdgeStyle;rounded=0;orthogonalLoop=1;jettySize=auto;html=1;exitX=0.83;exitY=0.5;exitDx=0;exitDy=0;exitPerimeter=0;endArrow=none;endFill=0;" parent="WQ6zJUxUwFgRDrmVzcBq-1" source="e6fJmapkV2s11m2w5oPW-25" edge="1">
          <mxGeometry relative="1" as="geometry">
            <mxPoint x="-690" y="980" as="targetPoint" />
            <Array as="points">
              <mxPoint x="-870" y="1300" />
              <mxPoint x="-870" y="1000" />
              <mxPoint x="-690" y="1000" />
            </Array>
          </mxGeometry>
        </mxCell>
        <mxCell id="e6fJmapkV2s11m2w5oPW-25" value="" style="shape=mxgraph.cisco.computers_and_peripherals.pc;html=1;pointerEvents=1;dashed=0;fillColor=#036897;strokeColor=#ffffff;strokeWidth=2;verticalLabelPosition=bottom;verticalAlign=top;align=center;outlineConnect=0;rounded=0;" parent="WQ6zJUxUwFgRDrmVzcBq-1" vertex="1">
          <mxGeometry x="-970" y="1260" width="80" height="80" as="geometry" />
        </mxCell>
        <mxCell id="e6fJmapkV2s11m2w5oPW-26" style="edgeStyle=orthogonalEdgeStyle;rounded=0;orthogonalLoop=1;jettySize=auto;html=1;exitX=0.16;exitY=0.5;exitDx=0;exitDy=0;exitPerimeter=0;entryX=0.5;entryY=1;entryDx=0;entryDy=0;entryPerimeter=0;endArrow=none;endFill=0;" parent="WQ6zJUxUwFgRDrmVzcBq-1" source="e6fJmapkV2s11m2w5oPW-27" target="e6fJmapkV2s11m2w5oPW-5" edge="1">
          <mxGeometry relative="1" as="geometry">
            <Array as="points">
              <mxPoint x="-870" y="1300" />
              <mxPoint x="-870" y="1000" />
              <mxPoint x="-690" y="1000" />
            </Array>
          </mxGeometry>
        </mxCell>
        <mxCell id="e6fJmapkV2s11m2w5oPW-27" value="" style="shape=mxgraph.cisco.computers_and_peripherals.pc;html=1;pointerEvents=1;dashed=0;fillColor=#036897;strokeColor=#ffffff;strokeWidth=2;verticalLabelPosition=bottom;verticalAlign=top;align=center;outlineConnect=0;rounded=0;" parent="WQ6zJUxUwFgRDrmVzcBq-1" vertex="1">
          <mxGeometry x="-850" y="1260" width="80" height="80" as="geometry" />
        </mxCell>
        <mxCell id="e6fJmapkV2s11m2w5oPW-28" style="edgeStyle=orthogonalEdgeStyle;rounded=0;orthogonalLoop=1;jettySize=auto;html=1;exitX=0.83;exitY=0.5;exitDx=0;exitDy=0;exitPerimeter=0;entryX=0.5;entryY=1;entryDx=0;entryDy=0;entryPerimeter=0;endArrow=none;endFill=0;" parent="WQ6zJUxUwFgRDrmVzcBq-1" source="e6fJmapkV2s11m2w5oPW-29" target="e6fJmapkV2s11m2w5oPW-5" edge="1">
          <mxGeometry relative="1" as="geometry">
            <Array as="points">
              <mxPoint x="-630" y="1300" />
              <mxPoint x="-630" y="1000" />
              <mxPoint x="-690" y="1000" />
            </Array>
          </mxGeometry>
        </mxCell>
        <mxCell id="e6fJmapkV2s11m2w5oPW-29" value="" style="shape=mxgraph.cisco.computers_and_peripherals.pc;html=1;pointerEvents=1;dashed=0;fillColor=#036897;strokeColor=#ffffff;strokeWidth=2;verticalLabelPosition=bottom;verticalAlign=top;align=center;outlineConnect=0;rounded=0;" parent="WQ6zJUxUwFgRDrmVzcBq-1" vertex="1">
          <mxGeometry x="-730" y="1260" width="80" height="80" as="geometry" />
        </mxCell>
        <mxCell id="e6fJmapkV2s11m2w5oPW-30" style="edgeStyle=orthogonalEdgeStyle;rounded=0;orthogonalLoop=1;jettySize=auto;html=1;exitX=0.83;exitY=0.5;exitDx=0;exitDy=0;exitPerimeter=0;entryX=0.5;entryY=1;entryDx=0;entryDy=0;entryPerimeter=0;endArrow=none;endFill=0;" parent="WQ6zJUxUwFgRDrmVzcBq-1" source="e6fJmapkV2s11m2w5oPW-31" target="e6fJmapkV2s11m2w5oPW-5" edge="1">
          <mxGeometry relative="1" as="geometry">
            <Array as="points">
              <mxPoint x="-510" y="1300" />
              <mxPoint x="-510" y="1000" />
              <mxPoint x="-690" y="1000" />
            </Array>
          </mxGeometry>
        </mxCell>
        <mxCell id="e6fJmapkV2s11m2w5oPW-31" value="" style="shape=mxgraph.cisco.computers_and_peripherals.pc;html=1;pointerEvents=1;dashed=0;fillColor=#036897;strokeColor=#ffffff;strokeWidth=2;verticalLabelPosition=bottom;verticalAlign=top;align=center;outlineConnect=0;rounded=0;" parent="WQ6zJUxUwFgRDrmVzcBq-1" vertex="1">
          <mxGeometry x="-610" y="1260" width="80" height="80" as="geometry" />
        </mxCell>
        <mxCell id="e6fJmapkV2s11m2w5oPW-32" style="edgeStyle=orthogonalEdgeStyle;rounded=0;orthogonalLoop=1;jettySize=auto;html=1;exitX=0.16;exitY=0.5;exitDx=0;exitDy=0;exitPerimeter=0;entryX=0.5;entryY=1;entryDx=0;entryDy=0;entryPerimeter=0;endArrow=none;endFill=0;" parent="WQ6zJUxUwFgRDrmVzcBq-1" source="e6fJmapkV2s11m2w5oPW-33" target="e6fJmapkV2s11m2w5oPW-5" edge="1">
          <mxGeometry relative="1" as="geometry">
            <Array as="points">
              <mxPoint x="-510" y="1300" />
              <mxPoint x="-510" y="1000" />
              <mxPoint x="-690" y="1000" />
            </Array>
          </mxGeometry>
        </mxCell>
        <mxCell id="e6fJmapkV2s11m2w5oPW-33" value="" style="shape=mxgraph.cisco.computers_and_peripherals.pc;html=1;pointerEvents=1;dashed=0;fillColor=#036897;strokeColor=#ffffff;strokeWidth=2;verticalLabelPosition=bottom;verticalAlign=top;align=center;outlineConnect=0;rounded=0;" parent="WQ6zJUxUwFgRDrmVzcBq-1" vertex="1">
          <mxGeometry x="-490" y="1260" width="80" height="80" as="geometry" />
        </mxCell>
        <mxCell id="e6fJmapkV2s11m2w5oPW-34" value="" style="shape=mxgraph.cisco.computers_and_peripherals.pc;html=1;pointerEvents=1;dashed=0;fillColor=#036897;strokeColor=#ffffff;strokeWidth=2;verticalLabelPosition=bottom;verticalAlign=top;align=center;outlineConnect=0;rounded=0;" parent="WQ6zJUxUwFgRDrmVzcBq-1" vertex="1">
          <mxGeometry x="-530" y="860" width="80" height="80" as="geometry" />
        </mxCell>
        <mxCell id="e6fJmapkV2s11m2w5oPW-35" value="VLAN 1" style="rounded=0;whiteSpace=wrap;html=1;" parent="WQ6zJUxUwFgRDrmVzcBq-1" vertex="1">
          <mxGeometry x="-530" y="940" width="80" height="20" as="geometry" />
        </mxCell>
        <mxCell id="e6fJmapkV2s11m2w5oPW-37" value="VLAN 3" style="rounded=0;whiteSpace=wrap;html=1;" parent="WQ6zJUxUwFgRDrmVzcBq-1" vertex="1">
          <mxGeometry x="-920" y="610" width="60" height="30" as="geometry" />
        </mxCell>
        <mxCell id="e6fJmapkV2s11m2w5oPW-38" value="VLAN 4" style="rounded=0;whiteSpace=wrap;html=1;" parent="WQ6zJUxUwFgRDrmVzcBq-1" vertex="1">
          <mxGeometry x="-920" y="650" width="60" height="30" as="geometry" />
        </mxCell>
        <mxCell id="e6fJmapkV2s11m2w5oPW-39" value="VLAN 5" style="rounded=0;whiteSpace=wrap;html=1;" parent="WQ6zJUxUwFgRDrmVzcBq-1" vertex="1">
          <mxGeometry x="-920" y="690" width="60" height="30" as="geometry" />
        </mxCell>
        <mxCell id="e6fJmapkV2s11m2w5oPW-40" value="VLAN 6" style="rounded=0;whiteSpace=wrap;html=1;" parent="WQ6zJUxUwFgRDrmVzcBq-1" vertex="1">
          <mxGeometry x="-920" y="730" width="60" height="30" as="geometry" />
        </mxCell>
        <mxCell id="e6fJmapkV2s11m2w5oPW-41" value="VLAN 7" style="rounded=0;whiteSpace=wrap;html=1;" parent="WQ6zJUxUwFgRDrmVzcBq-1" vertex="1">
          <mxGeometry x="-920" y="770" width="60" height="30" as="geometry" />
        </mxCell>
        <mxCell id="e6fJmapkV2s11m2w5oPW-42" value="VLAN 8" style="rounded=0;whiteSpace=wrap;html=1;" parent="WQ6zJUxUwFgRDrmVzcBq-1" vertex="1">
          <mxGeometry x="-920" y="810" width="60" height="30" as="geometry" />
        </mxCell>
        <mxCell id="e6fJmapkV2s11m2w5oPW-43" value="VLAN 10" style="rounded=0;whiteSpace=wrap;html=1;" parent="WQ6zJUxUwFgRDrmVzcBq-1" vertex="1">
          <mxGeometry x="-500" y="570" width="60" height="30" as="geometry" />
        </mxCell>
        <mxCell id="e6fJmapkV2s11m2w5oPW-44" value="VLAN 11" style="rounded=0;whiteSpace=wrap;html=1;" parent="WQ6zJUxUwFgRDrmVzcBq-1" vertex="1">
          <mxGeometry x="-500" y="610" width="60" height="30" as="geometry" />
        </mxCell>
        <mxCell id="e6fJmapkV2s11m2w5oPW-45" value="VLAN 12" style="rounded=0;whiteSpace=wrap;html=1;" parent="WQ6zJUxUwFgRDrmVzcBq-1" vertex="1">
          <mxGeometry x="-500" y="650" width="60" height="30" as="geometry" />
        </mxCell>
        <mxCell id="e6fJmapkV2s11m2w5oPW-46" value="VLAN 13" style="rounded=0;whiteSpace=wrap;html=1;" parent="WQ6zJUxUwFgRDrmVzcBq-1" vertex="1">
          <mxGeometry x="-500" y="690" width="60" height="30" as="geometry" />
        </mxCell>
        <mxCell id="e6fJmapkV2s11m2w5oPW-47" value="VLAN 14" style="rounded=0;whiteSpace=wrap;html=1;" parent="WQ6zJUxUwFgRDrmVzcBq-1" vertex="1">
          <mxGeometry x="-500" y="730" width="60" height="30" as="geometry" />
        </mxCell>
        <mxCell id="e6fJmapkV2s11m2w5oPW-48" value="VLAN 15" style="rounded=0;whiteSpace=wrap;html=1;" parent="WQ6zJUxUwFgRDrmVzcBq-1" vertex="1">
          <mxGeometry x="-500" y="770" width="60" height="30" as="geometry" />
        </mxCell>
        <mxCell id="e6fJmapkV2s11m2w5oPW-49" value="VLAN 16" style="rounded=0;whiteSpace=wrap;html=1;" parent="WQ6zJUxUwFgRDrmVzcBq-1" vertex="1">
          <mxGeometry x="-500" y="810" width="60" height="30" as="geometry" />
        </mxCell>
        <mxCell id="qmWatNkSUABWpBOGUkub-3" style="edgeStyle=orthogonalEdgeStyle;rounded=0;orthogonalLoop=1;jettySize=auto;html=1;exitX=0.55;exitY=0.95;exitDx=0;exitDy=0;exitPerimeter=0;entryX=0;entryY=0.5;entryDx=0;entryDy=0;entryPerimeter=0;endArrow=none;endFill=0;" parent="WQ6zJUxUwFgRDrmVzcBq-1" source="qmWatNkSUABWpBOGUkub-0" target="WQ6zJUxUwFgRDrmVzcBq-10" edge="1">
          <mxGeometry relative="1" as="geometry">
            <Array as="points">
              <mxPoint x="-890" y="227" />
              <mxPoint x="-890" y="265" />
            </Array>
          </mxGeometry>
        </mxCell>
        <mxCell id="qmWatNkSUABWpBOGUkub-0" value="" style="ellipse;shape=cloud;whiteSpace=wrap;html=1;rounded=0;" parent="WQ6zJUxUwFgRDrmVzcBq-1" vertex="1">
          <mxGeometry x="-970" y="175" width="160" height="70" as="geometry" />
        </mxCell>
        <mxCell id="qmWatNkSUABWpBOGUkub-1" value="White IP" style="rounded=0;whiteSpace=wrap;html=1;" parent="WQ6zJUxUwFgRDrmVzcBq-1" vertex="1">
          <mxGeometry x="-939" y="195" width="49" height="30" as="geometry" />
        </mxCell>
        <mxCell id="qmWatNkSUABWpBOGUkub-87" style="edgeStyle=orthogonalEdgeStyle;rounded=0;orthogonalLoop=1;jettySize=auto;html=1;exitX=0.5;exitY=1;exitDx=0;exitDy=0;exitPerimeter=0;entryX=0.83;entryY=0.5;entryDx=0;entryDy=0;entryPerimeter=0;endArrow=none;endFill=0;" parent="WQ6zJUxUwFgRDrmVzcBq-1" source="qmWatNkSUABWpBOGUkub-92" target="qmWatNkSUABWpBOGUkub-94" edge="1">
          <mxGeometry relative="1" as="geometry">
            <Array as="points">
              <mxPoint x="-60" y="1000" />
              <mxPoint x="-240" y="1000" />
              <mxPoint x="-240" y="1060" />
            </Array>
          </mxGeometry>
        </mxCell>
        <mxCell id="qmWatNkSUABWpBOGUkub-88" style="edgeStyle=orthogonalEdgeStyle;rounded=0;orthogonalLoop=1;jettySize=auto;html=1;exitX=0.5;exitY=1;exitDx=0;exitDy=0;exitPerimeter=0;entryX=0.16;entryY=0.5;entryDx=0;entryDy=0;entryPerimeter=0;endArrow=none;endFill=0;" parent="WQ6zJUxUwFgRDrmVzcBq-1" source="qmWatNkSUABWpBOGUkub-92" target="qmWatNkSUABWpBOGUkub-108" edge="1">
          <mxGeometry relative="1" as="geometry">
            <Array as="points">
              <mxPoint x="-60" y="1000" />
              <mxPoint x="120" y="1000" />
              <mxPoint x="120" y="1060" />
            </Array>
          </mxGeometry>
        </mxCell>
        <mxCell id="qmWatNkSUABWpBOGUkub-89" style="edgeStyle=orthogonalEdgeStyle;rounded=0;orthogonalLoop=1;jettySize=auto;html=1;exitX=0.5;exitY=1;exitDx=0;exitDy=0;exitPerimeter=0;entryX=0.83;entryY=0.5;entryDx=0;entryDy=0;entryPerimeter=0;endArrow=none;endFill=0;" parent="WQ6zJUxUwFgRDrmVzcBq-1" source="qmWatNkSUABWpBOGUkub-92" target="qmWatNkSUABWpBOGUkub-97" edge="1">
          <mxGeometry relative="1" as="geometry">
            <Array as="points">
              <mxPoint x="-60" y="1000" />
              <mxPoint y="1000" />
              <mxPoint y="1060" />
            </Array>
          </mxGeometry>
        </mxCell>
        <mxCell id="qmWatNkSUABWpBOGUkub-90" style="edgeStyle=orthogonalEdgeStyle;rounded=0;orthogonalLoop=1;jettySize=auto;html=1;exitX=0.5;exitY=1;exitDx=0;exitDy=0;exitPerimeter=0;entryX=0.83;entryY=0.5;entryDx=0;entryDy=0;entryPerimeter=0;endArrow=none;endFill=0;" parent="WQ6zJUxUwFgRDrmVzcBq-1" source="qmWatNkSUABWpBOGUkub-92" target="qmWatNkSUABWpBOGUkub-104" edge="1">
          <mxGeometry relative="1" as="geometry">
            <Array as="points">
              <mxPoint x="-60" y="1000" />
              <mxPoint y="1000" />
              <mxPoint y="1180" />
            </Array>
          </mxGeometry>
        </mxCell>
        <mxCell id="qmWatNkSUABWpBOGUkub-91" style="edgeStyle=orthogonalEdgeStyle;rounded=0;orthogonalLoop=1;jettySize=auto;html=1;exitX=0.5;exitY=1;exitDx=0;exitDy=0;exitPerimeter=0;endArrow=none;endFill=0;" parent="WQ6zJUxUwFgRDrmVzcBq-1" source="qmWatNkSUABWpBOGUkub-92" target="qmWatNkSUABWpBOGUkub-121" edge="1">
          <mxGeometry relative="1" as="geometry">
            <Array as="points">
              <mxPoint x="-60" y="1000" />
              <mxPoint x="60" y="1000" />
              <mxPoint x="60" y="900" />
            </Array>
          </mxGeometry>
        </mxCell>
        <mxCell id="qmWatNkSUABWpBOGUkub-92" value="" style="shape=mxgraph.cisco.hubs_and_gateways.small_hub;html=1;pointerEvents=1;dashed=0;fillColor=#036897;strokeColor=#ffffff;strokeWidth=2;verticalLabelPosition=bottom;verticalAlign=top;align=center;outlineConnect=0;rounded=0;" parent="WQ6zJUxUwFgRDrmVzcBq-1" vertex="1">
          <mxGeometry x="-140" y="940" width="160" height="40" as="geometry" />
        </mxCell>
        <mxCell id="qmWatNkSUABWpBOGUkub-93" value="Switch" style="rounded=0;whiteSpace=wrap;html=1;" parent="WQ6zJUxUwFgRDrmVzcBq-1" vertex="1">
          <mxGeometry x="-210" y="945" width="60" height="30" as="geometry" />
        </mxCell>
        <mxCell id="qmWatNkSUABWpBOGUkub-94" value="" style="shape=mxgraph.cisco.computers_and_peripherals.pc;html=1;pointerEvents=1;dashed=0;fillColor=#036897;strokeColor=#ffffff;strokeWidth=2;verticalLabelPosition=bottom;verticalAlign=top;align=center;outlineConnect=0;rounded=0;" parent="WQ6zJUxUwFgRDrmVzcBq-1" vertex="1">
          <mxGeometry x="-340" y="1020" width="80" height="80" as="geometry" />
        </mxCell>
        <mxCell id="qmWatNkSUABWpBOGUkub-95" style="edgeStyle=orthogonalEdgeStyle;rounded=0;orthogonalLoop=1;jettySize=auto;html=1;exitX=0.16;exitY=0.5;exitDx=0;exitDy=0;exitPerimeter=0;entryX=0.5;entryY=1;entryDx=0;entryDy=0;entryPerimeter=0;endArrow=none;endFill=0;" parent="WQ6zJUxUwFgRDrmVzcBq-1" source="qmWatNkSUABWpBOGUkub-96" target="qmWatNkSUABWpBOGUkub-92" edge="1">
          <mxGeometry relative="1" as="geometry">
            <Array as="points">
              <mxPoint x="-240" y="1060" />
              <mxPoint x="-240" y="1000" />
              <mxPoint x="-60" y="1000" />
            </Array>
          </mxGeometry>
        </mxCell>
        <mxCell id="qmWatNkSUABWpBOGUkub-96" value="" style="shape=mxgraph.cisco.computers_and_peripherals.pc;html=1;pointerEvents=1;dashed=0;fillColor=#036897;strokeColor=#ffffff;strokeWidth=2;verticalLabelPosition=bottom;verticalAlign=top;align=center;outlineConnect=0;rounded=0;" parent="WQ6zJUxUwFgRDrmVzcBq-1" vertex="1">
          <mxGeometry x="-220" y="1020" width="80" height="80" as="geometry" />
        </mxCell>
        <mxCell id="qmWatNkSUABWpBOGUkub-97" value="" style="shape=mxgraph.cisco.computers_and_peripherals.pc;html=1;pointerEvents=1;dashed=0;fillColor=#036897;strokeColor=#ffffff;strokeWidth=2;verticalLabelPosition=bottom;verticalAlign=top;align=center;outlineConnect=0;rounded=0;" parent="WQ6zJUxUwFgRDrmVzcBq-1" vertex="1">
          <mxGeometry x="-100" y="1020" width="80" height="80" as="geometry" />
        </mxCell>
        <mxCell id="qmWatNkSUABWpBOGUkub-98" style="edgeStyle=orthogonalEdgeStyle;rounded=0;orthogonalLoop=1;jettySize=auto;html=1;exitX=0.83;exitY=0.5;exitDx=0;exitDy=0;exitPerimeter=0;entryX=0.5;entryY=1;entryDx=0;entryDy=0;entryPerimeter=0;endArrow=none;endFill=0;" parent="WQ6zJUxUwFgRDrmVzcBq-1" source="qmWatNkSUABWpBOGUkub-99" target="qmWatNkSUABWpBOGUkub-92" edge="1">
          <mxGeometry relative="1" as="geometry">
            <Array as="points">
              <mxPoint x="120" y="1060" />
              <mxPoint x="120" y="1000" />
              <mxPoint x="-60" y="1000" />
            </Array>
          </mxGeometry>
        </mxCell>
        <mxCell id="qmWatNkSUABWpBOGUkub-99" value="" style="shape=mxgraph.cisco.computers_and_peripherals.pc;html=1;pointerEvents=1;dashed=0;fillColor=#036897;strokeColor=#ffffff;strokeWidth=2;verticalLabelPosition=bottom;verticalAlign=top;align=center;outlineConnect=0;rounded=0;" parent="WQ6zJUxUwFgRDrmVzcBq-1" vertex="1">
          <mxGeometry x="20" y="1020" width="80" height="80" as="geometry" />
        </mxCell>
        <mxCell id="qmWatNkSUABWpBOGUkub-100" style="edgeStyle=orthogonalEdgeStyle;rounded=0;orthogonalLoop=1;jettySize=auto;html=1;exitX=0.83;exitY=0.5;exitDx=0;exitDy=0;exitPerimeter=0;entryX=0.5;entryY=1;entryDx=0;entryDy=0;entryPerimeter=0;endArrow=none;endFill=0;" parent="WQ6zJUxUwFgRDrmVzcBq-1" source="qmWatNkSUABWpBOGUkub-101" target="qmWatNkSUABWpBOGUkub-92" edge="1">
          <mxGeometry relative="1" as="geometry">
            <Array as="points">
              <mxPoint x="-240" y="1180" />
              <mxPoint x="-240" y="1000" />
              <mxPoint x="-60" y="1000" />
            </Array>
          </mxGeometry>
        </mxCell>
        <mxCell id="qmWatNkSUABWpBOGUkub-101" value="" style="shape=mxgraph.cisco.computers_and_peripherals.pc;html=1;pointerEvents=1;dashed=0;fillColor=#036897;strokeColor=#ffffff;strokeWidth=2;verticalLabelPosition=bottom;verticalAlign=top;align=center;outlineConnect=0;rounded=0;" parent="WQ6zJUxUwFgRDrmVzcBq-1" vertex="1">
          <mxGeometry x="-340" y="1140" width="80" height="80" as="geometry" />
        </mxCell>
        <mxCell id="qmWatNkSUABWpBOGUkub-102" style="edgeStyle=orthogonalEdgeStyle;rounded=0;orthogonalLoop=1;jettySize=auto;html=1;exitX=0.16;exitY=0.5;exitDx=0;exitDy=0;exitPerimeter=0;entryX=0.5;entryY=1;entryDx=0;entryDy=0;entryPerimeter=0;endArrow=none;endFill=0;" parent="WQ6zJUxUwFgRDrmVzcBq-1" source="qmWatNkSUABWpBOGUkub-103" target="qmWatNkSUABWpBOGUkub-92" edge="1">
          <mxGeometry relative="1" as="geometry">
            <Array as="points">
              <mxPoint x="-240" y="1180" />
              <mxPoint x="-240" y="1000" />
              <mxPoint x="-60" y="1000" />
            </Array>
          </mxGeometry>
        </mxCell>
        <mxCell id="qmWatNkSUABWpBOGUkub-103" value="" style="shape=mxgraph.cisco.computers_and_peripherals.pc;html=1;pointerEvents=1;dashed=0;fillColor=#036897;strokeColor=#ffffff;strokeWidth=2;verticalLabelPosition=bottom;verticalAlign=top;align=center;outlineConnect=0;rounded=0;" parent="WQ6zJUxUwFgRDrmVzcBq-1" vertex="1">
          <mxGeometry x="-220" y="1140" width="80" height="80" as="geometry" />
        </mxCell>
        <mxCell id="qmWatNkSUABWpBOGUkub-104" value="" style="shape=mxgraph.cisco.computers_and_peripherals.pc;html=1;pointerEvents=1;dashed=0;fillColor=#036897;strokeColor=#ffffff;strokeWidth=2;verticalLabelPosition=bottom;verticalAlign=top;align=center;outlineConnect=0;rounded=0;" parent="WQ6zJUxUwFgRDrmVzcBq-1" vertex="1">
          <mxGeometry x="-100" y="1140" width="80" height="80" as="geometry" />
        </mxCell>
        <mxCell id="qmWatNkSUABWpBOGUkub-105" style="edgeStyle=orthogonalEdgeStyle;rounded=0;orthogonalLoop=1;jettySize=auto;html=1;exitX=0.83;exitY=0.5;exitDx=0;exitDy=0;exitPerimeter=0;entryX=0.5;entryY=1;entryDx=0;entryDy=0;entryPerimeter=0;endArrow=none;endFill=0;" parent="WQ6zJUxUwFgRDrmVzcBq-1" source="qmWatNkSUABWpBOGUkub-106" target="qmWatNkSUABWpBOGUkub-92" edge="1">
          <mxGeometry relative="1" as="geometry">
            <Array as="points">
              <mxPoint x="120" y="1180" />
              <mxPoint x="120" y="1000" />
              <mxPoint x="-60" y="1000" />
            </Array>
          </mxGeometry>
        </mxCell>
        <mxCell id="qmWatNkSUABWpBOGUkub-106" value="" style="shape=mxgraph.cisco.computers_and_peripherals.pc;html=1;pointerEvents=1;dashed=0;fillColor=#036897;strokeColor=#ffffff;strokeWidth=2;verticalLabelPosition=bottom;verticalAlign=top;align=center;outlineConnect=0;rounded=0;" parent="WQ6zJUxUwFgRDrmVzcBq-1" vertex="1">
          <mxGeometry x="20" y="1140" width="80" height="80" as="geometry" />
        </mxCell>
        <mxCell id="qmWatNkSUABWpBOGUkub-107" value="VLAN 20" style="rounded=0;whiteSpace=wrap;html=1;" parent="WQ6zJUxUwFgRDrmVzcBq-1" vertex="1">
          <mxGeometry x="-340" y="1100" width="80" height="20" as="geometry" />
        </mxCell>
        <mxCell id="qmWatNkSUABWpBOGUkub-108" value="" style="shape=mxgraph.cisco.computers_and_peripherals.pc;html=1;pointerEvents=1;dashed=0;fillColor=#036897;strokeColor=#ffffff;strokeWidth=2;verticalLabelPosition=bottom;verticalAlign=top;align=center;outlineConnect=0;rounded=0;" parent="WQ6zJUxUwFgRDrmVzcBq-1" vertex="1">
          <mxGeometry x="140" y="1020" width="80" height="80" as="geometry" />
        </mxCell>
        <mxCell id="qmWatNkSUABWpBOGUkub-109" style="edgeStyle=orthogonalEdgeStyle;rounded=0;orthogonalLoop=1;jettySize=auto;html=1;exitX=0.16;exitY=0.5;exitDx=0;exitDy=0;exitPerimeter=0;entryX=0.5;entryY=1;entryDx=0;entryDy=0;entryPerimeter=0;endArrow=none;endFill=0;" parent="WQ6zJUxUwFgRDrmVzcBq-1" source="qmWatNkSUABWpBOGUkub-110" target="qmWatNkSUABWpBOGUkub-92" edge="1">
          <mxGeometry relative="1" as="geometry">
            <Array as="points">
              <mxPoint x="120" y="1180" />
              <mxPoint x="120" y="1000" />
              <mxPoint x="-60" y="1000" />
            </Array>
          </mxGeometry>
        </mxCell>
        <mxCell id="qmWatNkSUABWpBOGUkub-110" value="" style="shape=mxgraph.cisco.computers_and_peripherals.pc;html=1;pointerEvents=1;dashed=0;fillColor=#036897;strokeColor=#ffffff;strokeWidth=2;verticalLabelPosition=bottom;verticalAlign=top;align=center;outlineConnect=0;rounded=0;" parent="WQ6zJUxUwFgRDrmVzcBq-1" vertex="1">
          <mxGeometry x="140" y="1140" width="80" height="80" as="geometry" />
        </mxCell>
        <mxCell id="qmWatNkSUABWpBOGUkub-111" style="edgeStyle=orthogonalEdgeStyle;rounded=0;orthogonalLoop=1;jettySize=auto;html=1;exitX=0.83;exitY=0.5;exitDx=0;exitDy=0;exitPerimeter=0;endArrow=none;endFill=0;" parent="WQ6zJUxUwFgRDrmVzcBq-1" source="qmWatNkSUABWpBOGUkub-112" edge="1">
          <mxGeometry relative="1" as="geometry">
            <mxPoint x="-60" y="980" as="targetPoint" />
            <Array as="points">
              <mxPoint x="-240" y="1300" />
              <mxPoint x="-240" y="1000" />
              <mxPoint x="-60" y="1000" />
            </Array>
          </mxGeometry>
        </mxCell>
        <mxCell id="qmWatNkSUABWpBOGUkub-112" value="" style="shape=mxgraph.cisco.computers_and_peripherals.pc;html=1;pointerEvents=1;dashed=0;fillColor=#036897;strokeColor=#ffffff;strokeWidth=2;verticalLabelPosition=bottom;verticalAlign=top;align=center;outlineConnect=0;rounded=0;" parent="WQ6zJUxUwFgRDrmVzcBq-1" vertex="1">
          <mxGeometry x="-340" y="1260" width="80" height="80" as="geometry" />
        </mxCell>
        <mxCell id="qmWatNkSUABWpBOGUkub-113" style="edgeStyle=orthogonalEdgeStyle;rounded=0;orthogonalLoop=1;jettySize=auto;html=1;exitX=0.16;exitY=0.5;exitDx=0;exitDy=0;exitPerimeter=0;entryX=0.5;entryY=1;entryDx=0;entryDy=0;entryPerimeter=0;endArrow=none;endFill=0;" parent="WQ6zJUxUwFgRDrmVzcBq-1" source="qmWatNkSUABWpBOGUkub-114" target="qmWatNkSUABWpBOGUkub-92" edge="1">
          <mxGeometry relative="1" as="geometry">
            <Array as="points">
              <mxPoint x="-240" y="1300" />
              <mxPoint x="-240" y="1000" />
              <mxPoint x="-60" y="1000" />
            </Array>
          </mxGeometry>
        </mxCell>
        <mxCell id="qmWatNkSUABWpBOGUkub-114" value="" style="shape=mxgraph.cisco.computers_and_peripherals.pc;html=1;pointerEvents=1;dashed=0;fillColor=#036897;strokeColor=#ffffff;strokeWidth=2;verticalLabelPosition=bottom;verticalAlign=top;align=center;outlineConnect=0;rounded=0;" parent="WQ6zJUxUwFgRDrmVzcBq-1" vertex="1">
          <mxGeometry x="-220" y="1260" width="80" height="80" as="geometry" />
        </mxCell>
        <mxCell id="qmWatNkSUABWpBOGUkub-115" style="edgeStyle=orthogonalEdgeStyle;rounded=0;orthogonalLoop=1;jettySize=auto;html=1;exitX=0.83;exitY=0.5;exitDx=0;exitDy=0;exitPerimeter=0;entryX=0.5;entryY=1;entryDx=0;entryDy=0;entryPerimeter=0;endArrow=none;endFill=0;" parent="WQ6zJUxUwFgRDrmVzcBq-1" source="qmWatNkSUABWpBOGUkub-116" target="qmWatNkSUABWpBOGUkub-92" edge="1">
          <mxGeometry relative="1" as="geometry">
            <Array as="points">
              <mxPoint y="1300" />
              <mxPoint y="1000" />
              <mxPoint x="-60" y="1000" />
            </Array>
          </mxGeometry>
        </mxCell>
        <mxCell id="qmWatNkSUABWpBOGUkub-116" value="" style="shape=mxgraph.cisco.computers_and_peripherals.pc;html=1;pointerEvents=1;dashed=0;fillColor=#036897;strokeColor=#ffffff;strokeWidth=2;verticalLabelPosition=bottom;verticalAlign=top;align=center;outlineConnect=0;rounded=0;" parent="WQ6zJUxUwFgRDrmVzcBq-1" vertex="1">
          <mxGeometry x="-100" y="1260" width="80" height="80" as="geometry" />
        </mxCell>
        <mxCell id="qmWatNkSUABWpBOGUkub-117" style="edgeStyle=orthogonalEdgeStyle;rounded=0;orthogonalLoop=1;jettySize=auto;html=1;exitX=0.83;exitY=0.5;exitDx=0;exitDy=0;exitPerimeter=0;entryX=0.5;entryY=1;entryDx=0;entryDy=0;entryPerimeter=0;endArrow=none;endFill=0;" parent="WQ6zJUxUwFgRDrmVzcBq-1" source="qmWatNkSUABWpBOGUkub-118" target="qmWatNkSUABWpBOGUkub-92" edge="1">
          <mxGeometry relative="1" as="geometry">
            <Array as="points">
              <mxPoint x="120" y="1300" />
              <mxPoint x="120" y="1000" />
              <mxPoint x="-60" y="1000" />
            </Array>
          </mxGeometry>
        </mxCell>
        <mxCell id="qmWatNkSUABWpBOGUkub-118" value="" style="shape=mxgraph.cisco.computers_and_peripherals.pc;html=1;pointerEvents=1;dashed=0;fillColor=#036897;strokeColor=#ffffff;strokeWidth=2;verticalLabelPosition=bottom;verticalAlign=top;align=center;outlineConnect=0;rounded=0;" parent="WQ6zJUxUwFgRDrmVzcBq-1" vertex="1">
          <mxGeometry x="20" y="1260" width="80" height="80" as="geometry" />
        </mxCell>
        <mxCell id="qmWatNkSUABWpBOGUkub-119" style="edgeStyle=orthogonalEdgeStyle;rounded=0;orthogonalLoop=1;jettySize=auto;html=1;exitX=0.16;exitY=0.5;exitDx=0;exitDy=0;exitPerimeter=0;entryX=0.5;entryY=1;entryDx=0;entryDy=0;entryPerimeter=0;endArrow=none;endFill=0;" parent="WQ6zJUxUwFgRDrmVzcBq-1" source="qmWatNkSUABWpBOGUkub-120" target="qmWatNkSUABWpBOGUkub-92" edge="1">
          <mxGeometry relative="1" as="geometry">
            <Array as="points">
              <mxPoint x="120" y="1300" />
              <mxPoint x="120" y="1000" />
              <mxPoint x="-60" y="1000" />
            </Array>
          </mxGeometry>
        </mxCell>
        <mxCell id="qmWatNkSUABWpBOGUkub-120" value="" style="shape=mxgraph.cisco.computers_and_peripherals.pc;html=1;pointerEvents=1;dashed=0;fillColor=#036897;strokeColor=#ffffff;strokeWidth=2;verticalLabelPosition=bottom;verticalAlign=top;align=center;outlineConnect=0;rounded=0;" parent="WQ6zJUxUwFgRDrmVzcBq-1" vertex="1">
          <mxGeometry x="140" y="1260" width="80" height="80" as="geometry" />
        </mxCell>
        <mxCell id="qmWatNkSUABWpBOGUkub-121" value="" style="shape=mxgraph.cisco.computers_and_peripherals.pc;html=1;pointerEvents=1;dashed=0;fillColor=#036897;strokeColor=#ffffff;strokeWidth=2;verticalLabelPosition=bottom;verticalAlign=top;align=center;outlineConnect=0;rounded=0;" parent="WQ6zJUxUwFgRDrmVzcBq-1" vertex="1">
          <mxGeometry x="100" y="860" width="80" height="80" as="geometry" />
        </mxCell>
        <mxCell id="qmWatNkSUABWpBOGUkub-122" value="VLAN 1" style="rounded=0;whiteSpace=wrap;html=1;" parent="WQ6zJUxUwFgRDrmVzcBq-1" vertex="1">
          <mxGeometry x="100" y="940" width="80" height="20" as="geometry" />
        </mxCell>
        <mxCell id="qmWatNkSUABWpBOGUkub-161" style="edgeStyle=orthogonalEdgeStyle;rounded=0;orthogonalLoop=1;jettySize=auto;html=1;exitX=0.5;exitY=1;exitDx=0;exitDy=0;exitPerimeter=0;entryX=0.83;entryY=0.5;entryDx=0;entryDy=0;entryPerimeter=0;endArrow=none;endFill=0;" parent="WQ6zJUxUwFgRDrmVzcBq-1" source="qmWatNkSUABWpBOGUkub-166" target="qmWatNkSUABWpBOGUkub-168" edge="1">
          <mxGeometry relative="1" as="geometry">
            <Array as="points">
              <mxPoint x="590" y="1000" />
              <mxPoint x="410" y="1000" />
              <mxPoint x="410" y="1060" />
            </Array>
          </mxGeometry>
        </mxCell>
        <mxCell id="qmWatNkSUABWpBOGUkub-162" style="edgeStyle=orthogonalEdgeStyle;rounded=0;orthogonalLoop=1;jettySize=auto;html=1;exitX=0.5;exitY=1;exitDx=0;exitDy=0;exitPerimeter=0;entryX=0.16;entryY=0.5;entryDx=0;entryDy=0;entryPerimeter=0;endArrow=none;endFill=0;" parent="WQ6zJUxUwFgRDrmVzcBq-1" source="qmWatNkSUABWpBOGUkub-166" target="qmWatNkSUABWpBOGUkub-182" edge="1">
          <mxGeometry relative="1" as="geometry">
            <Array as="points">
              <mxPoint x="590" y="1000" />
              <mxPoint x="770" y="1000" />
              <mxPoint x="770" y="1060" />
            </Array>
          </mxGeometry>
        </mxCell>
        <mxCell id="qmWatNkSUABWpBOGUkub-163" style="edgeStyle=orthogonalEdgeStyle;rounded=0;orthogonalLoop=1;jettySize=auto;html=1;exitX=0.5;exitY=1;exitDx=0;exitDy=0;exitPerimeter=0;entryX=0.83;entryY=0.5;entryDx=0;entryDy=0;entryPerimeter=0;endArrow=none;endFill=0;" parent="WQ6zJUxUwFgRDrmVzcBq-1" source="qmWatNkSUABWpBOGUkub-166" target="qmWatNkSUABWpBOGUkub-171" edge="1">
          <mxGeometry relative="1" as="geometry">
            <Array as="points">
              <mxPoint x="590" y="1000" />
              <mxPoint x="650" y="1000" />
              <mxPoint x="650" y="1060" />
            </Array>
          </mxGeometry>
        </mxCell>
        <mxCell id="qmWatNkSUABWpBOGUkub-164" style="edgeStyle=orthogonalEdgeStyle;rounded=0;orthogonalLoop=1;jettySize=auto;html=1;exitX=0.5;exitY=1;exitDx=0;exitDy=0;exitPerimeter=0;entryX=0.83;entryY=0.5;entryDx=0;entryDy=0;entryPerimeter=0;endArrow=none;endFill=0;" parent="WQ6zJUxUwFgRDrmVzcBq-1" source="qmWatNkSUABWpBOGUkub-166" target="qmWatNkSUABWpBOGUkub-178" edge="1">
          <mxGeometry relative="1" as="geometry">
            <Array as="points">
              <mxPoint x="590" y="1000" />
              <mxPoint x="650" y="1000" />
              <mxPoint x="650" y="1180" />
            </Array>
          </mxGeometry>
        </mxCell>
        <mxCell id="qmWatNkSUABWpBOGUkub-165" style="edgeStyle=orthogonalEdgeStyle;rounded=0;orthogonalLoop=1;jettySize=auto;html=1;exitX=0.5;exitY=1;exitDx=0;exitDy=0;exitPerimeter=0;endArrow=none;endFill=0;" parent="WQ6zJUxUwFgRDrmVzcBq-1" source="qmWatNkSUABWpBOGUkub-166" target="qmWatNkSUABWpBOGUkub-195" edge="1">
          <mxGeometry relative="1" as="geometry">
            <Array as="points">
              <mxPoint x="590" y="1000" />
              <mxPoint x="710" y="1000" />
              <mxPoint x="710" y="900" />
            </Array>
          </mxGeometry>
        </mxCell>
        <mxCell id="qmWatNkSUABWpBOGUkub-166" value="" style="shape=mxgraph.cisco.hubs_and_gateways.small_hub;html=1;pointerEvents=1;dashed=0;fillColor=#036897;strokeColor=#ffffff;strokeWidth=2;verticalLabelPosition=bottom;verticalAlign=top;align=center;outlineConnect=0;rounded=0;" parent="WQ6zJUxUwFgRDrmVzcBq-1" vertex="1">
          <mxGeometry x="510" y="940" width="160" height="40" as="geometry" />
        </mxCell>
        <mxCell id="qmWatNkSUABWpBOGUkub-168" value="" style="shape=mxgraph.cisco.computers_and_peripherals.pc;html=1;pointerEvents=1;dashed=0;fillColor=#036897;strokeColor=#ffffff;strokeWidth=2;verticalLabelPosition=bottom;verticalAlign=top;align=center;outlineConnect=0;rounded=0;" parent="WQ6zJUxUwFgRDrmVzcBq-1" vertex="1">
          <mxGeometry x="310" y="1020" width="80" height="80" as="geometry" />
        </mxCell>
        <mxCell id="qmWatNkSUABWpBOGUkub-169" style="edgeStyle=orthogonalEdgeStyle;rounded=0;orthogonalLoop=1;jettySize=auto;html=1;exitX=0.16;exitY=0.5;exitDx=0;exitDy=0;exitPerimeter=0;entryX=0.5;entryY=1;entryDx=0;entryDy=0;entryPerimeter=0;endArrow=none;endFill=0;" parent="WQ6zJUxUwFgRDrmVzcBq-1" source="qmWatNkSUABWpBOGUkub-170" target="qmWatNkSUABWpBOGUkub-166" edge="1">
          <mxGeometry relative="1" as="geometry">
            <Array as="points">
              <mxPoint x="410" y="1060" />
              <mxPoint x="410" y="1000" />
              <mxPoint x="590" y="1000" />
            </Array>
          </mxGeometry>
        </mxCell>
        <mxCell id="qmWatNkSUABWpBOGUkub-170" value="" style="shape=mxgraph.cisco.computers_and_peripherals.pc;html=1;pointerEvents=1;dashed=0;fillColor=#036897;strokeColor=#ffffff;strokeWidth=2;verticalLabelPosition=bottom;verticalAlign=top;align=center;outlineConnect=0;rounded=0;" parent="WQ6zJUxUwFgRDrmVzcBq-1" vertex="1">
          <mxGeometry x="430" y="1020" width="80" height="80" as="geometry" />
        </mxCell>
        <mxCell id="qmWatNkSUABWpBOGUkub-171" value="" style="shape=mxgraph.cisco.computers_and_peripherals.pc;html=1;pointerEvents=1;dashed=0;fillColor=#036897;strokeColor=#ffffff;strokeWidth=2;verticalLabelPosition=bottom;verticalAlign=top;align=center;outlineConnect=0;rounded=0;" parent="WQ6zJUxUwFgRDrmVzcBq-1" vertex="1">
          <mxGeometry x="550" y="1020" width="80" height="80" as="geometry" />
        </mxCell>
        <mxCell id="qmWatNkSUABWpBOGUkub-172" style="edgeStyle=orthogonalEdgeStyle;rounded=0;orthogonalLoop=1;jettySize=auto;html=1;exitX=0.83;exitY=0.5;exitDx=0;exitDy=0;exitPerimeter=0;entryX=0.5;entryY=1;entryDx=0;entryDy=0;entryPerimeter=0;endArrow=none;endFill=0;" parent="WQ6zJUxUwFgRDrmVzcBq-1" source="qmWatNkSUABWpBOGUkub-173" target="qmWatNkSUABWpBOGUkub-166" edge="1">
          <mxGeometry relative="1" as="geometry">
            <Array as="points">
              <mxPoint x="770" y="1060" />
              <mxPoint x="770" y="1000" />
              <mxPoint x="590" y="1000" />
            </Array>
          </mxGeometry>
        </mxCell>
        <mxCell id="qmWatNkSUABWpBOGUkub-173" value="" style="shape=mxgraph.cisco.computers_and_peripherals.pc;html=1;pointerEvents=1;dashed=0;fillColor=#036897;strokeColor=#ffffff;strokeWidth=2;verticalLabelPosition=bottom;verticalAlign=top;align=center;outlineConnect=0;rounded=0;" parent="WQ6zJUxUwFgRDrmVzcBq-1" vertex="1">
          <mxGeometry x="670" y="1020" width="80" height="80" as="geometry" />
        </mxCell>
        <mxCell id="qmWatNkSUABWpBOGUkub-174" style="edgeStyle=orthogonalEdgeStyle;rounded=0;orthogonalLoop=1;jettySize=auto;html=1;exitX=0.83;exitY=0.5;exitDx=0;exitDy=0;exitPerimeter=0;entryX=0.5;entryY=1;entryDx=0;entryDy=0;entryPerimeter=0;endArrow=none;endFill=0;" parent="WQ6zJUxUwFgRDrmVzcBq-1" source="qmWatNkSUABWpBOGUkub-175" target="qmWatNkSUABWpBOGUkub-166" edge="1">
          <mxGeometry relative="1" as="geometry">
            <Array as="points">
              <mxPoint x="410" y="1180" />
              <mxPoint x="410" y="1000" />
              <mxPoint x="590" y="1000" />
            </Array>
          </mxGeometry>
        </mxCell>
        <mxCell id="qmWatNkSUABWpBOGUkub-175" value="" style="shape=mxgraph.cisco.computers_and_peripherals.pc;html=1;pointerEvents=1;dashed=0;fillColor=#036897;strokeColor=#ffffff;strokeWidth=2;verticalLabelPosition=bottom;verticalAlign=top;align=center;outlineConnect=0;rounded=0;" parent="WQ6zJUxUwFgRDrmVzcBq-1" vertex="1">
          <mxGeometry x="310" y="1140" width="80" height="80" as="geometry" />
        </mxCell>
        <mxCell id="qmWatNkSUABWpBOGUkub-176" style="edgeStyle=orthogonalEdgeStyle;rounded=0;orthogonalLoop=1;jettySize=auto;html=1;exitX=0.16;exitY=0.5;exitDx=0;exitDy=0;exitPerimeter=0;entryX=0.5;entryY=1;entryDx=0;entryDy=0;entryPerimeter=0;endArrow=none;endFill=0;" parent="WQ6zJUxUwFgRDrmVzcBq-1" source="qmWatNkSUABWpBOGUkub-177" target="qmWatNkSUABWpBOGUkub-166" edge="1">
          <mxGeometry relative="1" as="geometry">
            <Array as="points">
              <mxPoint x="410" y="1180" />
              <mxPoint x="410" y="1000" />
              <mxPoint x="590" y="1000" />
            </Array>
          </mxGeometry>
        </mxCell>
        <mxCell id="qmWatNkSUABWpBOGUkub-177" value="" style="shape=mxgraph.cisco.computers_and_peripherals.pc;html=1;pointerEvents=1;dashed=0;fillColor=#036897;strokeColor=#ffffff;strokeWidth=2;verticalLabelPosition=bottom;verticalAlign=top;align=center;outlineConnect=0;rounded=0;" parent="WQ6zJUxUwFgRDrmVzcBq-1" vertex="1">
          <mxGeometry x="430" y="1140" width="80" height="80" as="geometry" />
        </mxCell>
        <mxCell id="qmWatNkSUABWpBOGUkub-178" value="" style="shape=mxgraph.cisco.computers_and_peripherals.pc;html=1;pointerEvents=1;dashed=0;fillColor=#036897;strokeColor=#ffffff;strokeWidth=2;verticalLabelPosition=bottom;verticalAlign=top;align=center;outlineConnect=0;rounded=0;" parent="WQ6zJUxUwFgRDrmVzcBq-1" vertex="1">
          <mxGeometry x="550" y="1140" width="80" height="80" as="geometry" />
        </mxCell>
        <mxCell id="qmWatNkSUABWpBOGUkub-179" style="edgeStyle=orthogonalEdgeStyle;rounded=0;orthogonalLoop=1;jettySize=auto;html=1;exitX=0.83;exitY=0.5;exitDx=0;exitDy=0;exitPerimeter=0;entryX=0.5;entryY=1;entryDx=0;entryDy=0;entryPerimeter=0;endArrow=none;endFill=0;" parent="WQ6zJUxUwFgRDrmVzcBq-1" source="qmWatNkSUABWpBOGUkub-180" target="qmWatNkSUABWpBOGUkub-166" edge="1">
          <mxGeometry relative="1" as="geometry">
            <Array as="points">
              <mxPoint x="770" y="1180" />
              <mxPoint x="770" y="1000" />
              <mxPoint x="590" y="1000" />
            </Array>
          </mxGeometry>
        </mxCell>
        <mxCell id="qmWatNkSUABWpBOGUkub-180" value="" style="shape=mxgraph.cisco.computers_and_peripherals.pc;html=1;pointerEvents=1;dashed=0;fillColor=#036897;strokeColor=#ffffff;strokeWidth=2;verticalLabelPosition=bottom;verticalAlign=top;align=center;outlineConnect=0;rounded=0;" parent="WQ6zJUxUwFgRDrmVzcBq-1" vertex="1">
          <mxGeometry x="670" y="1140" width="80" height="80" as="geometry" />
        </mxCell>
        <mxCell id="qmWatNkSUABWpBOGUkub-181" value="VLAN 40" style="rounded=0;whiteSpace=wrap;html=1;" parent="WQ6zJUxUwFgRDrmVzcBq-1" vertex="1">
          <mxGeometry x="310" y="1100" width="80" height="20" as="geometry" />
        </mxCell>
        <mxCell id="qmWatNkSUABWpBOGUkub-182" value="" style="shape=mxgraph.cisco.computers_and_peripherals.pc;html=1;pointerEvents=1;dashed=0;fillColor=#036897;strokeColor=#ffffff;strokeWidth=2;verticalLabelPosition=bottom;verticalAlign=top;align=center;outlineConnect=0;rounded=0;" parent="WQ6zJUxUwFgRDrmVzcBq-1" vertex="1">
          <mxGeometry x="790" y="1020" width="80" height="80" as="geometry" />
        </mxCell>
        <mxCell id="qmWatNkSUABWpBOGUkub-183" style="edgeStyle=orthogonalEdgeStyle;rounded=0;orthogonalLoop=1;jettySize=auto;html=1;exitX=0.16;exitY=0.5;exitDx=0;exitDy=0;exitPerimeter=0;entryX=0.5;entryY=1;entryDx=0;entryDy=0;entryPerimeter=0;endArrow=none;endFill=0;" parent="WQ6zJUxUwFgRDrmVzcBq-1" source="qmWatNkSUABWpBOGUkub-184" target="qmWatNkSUABWpBOGUkub-166" edge="1">
          <mxGeometry relative="1" as="geometry">
            <Array as="points">
              <mxPoint x="770" y="1180" />
              <mxPoint x="770" y="1000" />
              <mxPoint x="590" y="1000" />
            </Array>
          </mxGeometry>
        </mxCell>
        <mxCell id="qmWatNkSUABWpBOGUkub-184" value="" style="shape=mxgraph.cisco.computers_and_peripherals.pc;html=1;pointerEvents=1;dashed=0;fillColor=#036897;strokeColor=#ffffff;strokeWidth=2;verticalLabelPosition=bottom;verticalAlign=top;align=center;outlineConnect=0;rounded=0;" parent="WQ6zJUxUwFgRDrmVzcBq-1" vertex="1">
          <mxGeometry x="790" y="1140" width="80" height="80" as="geometry" />
        </mxCell>
        <mxCell id="qmWatNkSUABWpBOGUkub-185" style="edgeStyle=orthogonalEdgeStyle;rounded=0;orthogonalLoop=1;jettySize=auto;html=1;exitX=0.83;exitY=0.5;exitDx=0;exitDy=0;exitPerimeter=0;endArrow=none;endFill=0;" parent="WQ6zJUxUwFgRDrmVzcBq-1" source="qmWatNkSUABWpBOGUkub-186" edge="1">
          <mxGeometry relative="1" as="geometry">
            <mxPoint x="590" y="980" as="targetPoint" />
            <Array as="points">
              <mxPoint x="410" y="1300" />
              <mxPoint x="410" y="1000" />
              <mxPoint x="590" y="1000" />
            </Array>
          </mxGeometry>
        </mxCell>
        <mxCell id="qmWatNkSUABWpBOGUkub-186" value="" style="shape=mxgraph.cisco.computers_and_peripherals.pc;html=1;pointerEvents=1;dashed=0;fillColor=#036897;strokeColor=#ffffff;strokeWidth=2;verticalLabelPosition=bottom;verticalAlign=top;align=center;outlineConnect=0;rounded=0;" parent="WQ6zJUxUwFgRDrmVzcBq-1" vertex="1">
          <mxGeometry x="310" y="1260" width="80" height="80" as="geometry" />
        </mxCell>
        <mxCell id="qmWatNkSUABWpBOGUkub-187" style="edgeStyle=orthogonalEdgeStyle;rounded=0;orthogonalLoop=1;jettySize=auto;html=1;exitX=0.16;exitY=0.5;exitDx=0;exitDy=0;exitPerimeter=0;entryX=0.5;entryY=1;entryDx=0;entryDy=0;entryPerimeter=0;endArrow=none;endFill=0;" parent="WQ6zJUxUwFgRDrmVzcBq-1" source="qmWatNkSUABWpBOGUkub-188" target="qmWatNkSUABWpBOGUkub-166" edge="1">
          <mxGeometry relative="1" as="geometry">
            <Array as="points">
              <mxPoint x="410" y="1300" />
              <mxPoint x="410" y="1000" />
              <mxPoint x="590" y="1000" />
            </Array>
          </mxGeometry>
        </mxCell>
        <mxCell id="qmWatNkSUABWpBOGUkub-188" value="" style="shape=mxgraph.cisco.computers_and_peripherals.pc;html=1;pointerEvents=1;dashed=0;fillColor=#036897;strokeColor=#ffffff;strokeWidth=2;verticalLabelPosition=bottom;verticalAlign=top;align=center;outlineConnect=0;rounded=0;" parent="WQ6zJUxUwFgRDrmVzcBq-1" vertex="1">
          <mxGeometry x="430" y="1260" width="80" height="80" as="geometry" />
        </mxCell>
        <mxCell id="qmWatNkSUABWpBOGUkub-189" style="edgeStyle=orthogonalEdgeStyle;rounded=0;orthogonalLoop=1;jettySize=auto;html=1;exitX=0.83;exitY=0.5;exitDx=0;exitDy=0;exitPerimeter=0;entryX=0.5;entryY=1;entryDx=0;entryDy=0;entryPerimeter=0;endArrow=none;endFill=0;" parent="WQ6zJUxUwFgRDrmVzcBq-1" source="qmWatNkSUABWpBOGUkub-190" target="qmWatNkSUABWpBOGUkub-166" edge="1">
          <mxGeometry relative="1" as="geometry">
            <Array as="points">
              <mxPoint x="650" y="1300" />
              <mxPoint x="650" y="1000" />
              <mxPoint x="590" y="1000" />
            </Array>
          </mxGeometry>
        </mxCell>
        <mxCell id="qmWatNkSUABWpBOGUkub-190" value="" style="shape=mxgraph.cisco.computers_and_peripherals.pc;html=1;pointerEvents=1;dashed=0;fillColor=#036897;strokeColor=#ffffff;strokeWidth=2;verticalLabelPosition=bottom;verticalAlign=top;align=center;outlineConnect=0;rounded=0;" parent="WQ6zJUxUwFgRDrmVzcBq-1" vertex="1">
          <mxGeometry x="550" y="1260" width="80" height="80" as="geometry" />
        </mxCell>
        <mxCell id="qmWatNkSUABWpBOGUkub-191" style="edgeStyle=orthogonalEdgeStyle;rounded=0;orthogonalLoop=1;jettySize=auto;html=1;exitX=0.83;exitY=0.5;exitDx=0;exitDy=0;exitPerimeter=0;entryX=0.5;entryY=1;entryDx=0;entryDy=0;entryPerimeter=0;endArrow=none;endFill=0;" parent="WQ6zJUxUwFgRDrmVzcBq-1" source="qmWatNkSUABWpBOGUkub-192" target="qmWatNkSUABWpBOGUkub-166" edge="1">
          <mxGeometry relative="1" as="geometry">
            <Array as="points">
              <mxPoint x="770" y="1300" />
              <mxPoint x="770" y="1000" />
              <mxPoint x="590" y="1000" />
            </Array>
          </mxGeometry>
        </mxCell>
        <mxCell id="qmWatNkSUABWpBOGUkub-192" value="" style="shape=mxgraph.cisco.computers_and_peripherals.pc;html=1;pointerEvents=1;dashed=0;fillColor=#036897;strokeColor=#ffffff;strokeWidth=2;verticalLabelPosition=bottom;verticalAlign=top;align=center;outlineConnect=0;rounded=0;" parent="WQ6zJUxUwFgRDrmVzcBq-1" vertex="1">
          <mxGeometry x="670" y="1260" width="80" height="80" as="geometry" />
        </mxCell>
        <mxCell id="qmWatNkSUABWpBOGUkub-193" style="edgeStyle=orthogonalEdgeStyle;rounded=0;orthogonalLoop=1;jettySize=auto;html=1;exitX=0.16;exitY=0.5;exitDx=0;exitDy=0;exitPerimeter=0;entryX=0.5;entryY=1;entryDx=0;entryDy=0;entryPerimeter=0;endArrow=none;endFill=0;" parent="WQ6zJUxUwFgRDrmVzcBq-1" source="qmWatNkSUABWpBOGUkub-194" target="qmWatNkSUABWpBOGUkub-166" edge="1">
          <mxGeometry relative="1" as="geometry">
            <Array as="points">
              <mxPoint x="770" y="1300" />
              <mxPoint x="770" y="1000" />
              <mxPoint x="590" y="1000" />
            </Array>
          </mxGeometry>
        </mxCell>
        <mxCell id="qmWatNkSUABWpBOGUkub-194" value="" style="shape=mxgraph.cisco.computers_and_peripherals.pc;html=1;pointerEvents=1;dashed=0;fillColor=#036897;strokeColor=#ffffff;strokeWidth=2;verticalLabelPosition=bottom;verticalAlign=top;align=center;outlineConnect=0;rounded=0;" parent="WQ6zJUxUwFgRDrmVzcBq-1" vertex="1">
          <mxGeometry x="790" y="1260" width="80" height="80" as="geometry" />
        </mxCell>
        <mxCell id="qmWatNkSUABWpBOGUkub-195" value="" style="shape=mxgraph.cisco.computers_and_peripherals.pc;html=1;pointerEvents=1;dashed=0;fillColor=#036897;strokeColor=#ffffff;strokeWidth=2;verticalLabelPosition=bottom;verticalAlign=top;align=center;outlineConnect=0;rounded=0;" parent="WQ6zJUxUwFgRDrmVzcBq-1" vertex="1">
          <mxGeometry x="750" y="860" width="80" height="80" as="geometry" />
        </mxCell>
        <mxCell id="qmWatNkSUABWpBOGUkub-196" value="VLAN 1" style="rounded=0;whiteSpace=wrap;html=1;" parent="WQ6zJUxUwFgRDrmVzcBq-1" vertex="1">
          <mxGeometry x="750" y="940" width="80" height="20" as="geometry" />
        </mxCell>
        <mxCell id="vm16YK44oJi_Qf8WF7Tp-8" style="edgeStyle=orthogonalEdgeStyle;rounded=0;orthogonalLoop=1;jettySize=auto;html=1;exitX=1;exitY=0.5;exitDx=0;exitDy=0;exitPerimeter=0;entryX=0.5;entryY=0;entryDx=0;entryDy=0;entryPerimeter=0;endArrow=none;endFill=0;" parent="WQ6zJUxUwFgRDrmVzcBq-1" source="vm16YK44oJi_Qf8WF7Tp-0" target="qmWatNkSUABWpBOGUkub-92" edge="1">
          <mxGeometry relative="1" as="geometry" />
        </mxCell>
        <mxCell id="vm16YK44oJi_Qf8WF7Tp-0" value="" style="shape=mxgraph.cisco.servers.standard_host;html=1;pointerEvents=1;dashed=0;fillColor=#036897;strokeColor=#ffffff;strokeWidth=2;verticalLabelPosition=bottom;verticalAlign=top;align=center;outlineConnect=0;rounded=0;" parent="WQ6zJUxUwFgRDrmVzcBq-1" vertex="1">
          <mxGeometry x="-330" y="530" width="160" height="30" as="geometry" />
        </mxCell>
        <mxCell id="vm16YK44oJi_Qf8WF7Tp-12" style="edgeStyle=orthogonalEdgeStyle;rounded=0;orthogonalLoop=1;jettySize=auto;html=1;exitX=1;exitY=0.5;exitDx=0;exitDy=0;exitPerimeter=0;entryX=0.5;entryY=0;entryDx=0;entryDy=0;entryPerimeter=0;endArrow=none;endFill=0;" parent="WQ6zJUxUwFgRDrmVzcBq-1" source="vm16YK44oJi_Qf8WF7Tp-1" target="qmWatNkSUABWpBOGUkub-92" edge="1">
          <mxGeometry relative="1" as="geometry" />
        </mxCell>
        <mxCell id="vm16YK44oJi_Qf8WF7Tp-1" value="" style="shape=mxgraph.cisco.servers.standard_host;html=1;pointerEvents=1;dashed=0;fillColor=#036897;strokeColor=#ffffff;strokeWidth=2;verticalLabelPosition=bottom;verticalAlign=top;align=center;outlineConnect=0;rounded=0;" parent="WQ6zJUxUwFgRDrmVzcBq-1" vertex="1">
          <mxGeometry x="-330" y="570" width="160" height="30" as="geometry" />
        </mxCell>
        <mxCell id="vm16YK44oJi_Qf8WF7Tp-2" value="VLAN 1" style="rounded=0;whiteSpace=wrap;html=1;" parent="WQ6zJUxUwFgRDrmVzcBq-1" vertex="1">
          <mxGeometry x="-280" y="490" width="60" height="30" as="geometry" />
        </mxCell>
        <mxCell id="vm16YK44oJi_Qf8WF7Tp-3" value="VLAN 1" style="rounded=0;whiteSpace=wrap;html=1;" parent="WQ6zJUxUwFgRDrmVzcBq-1" vertex="1">
          <mxGeometry x="-280" y="610" width="60" height="30" as="geometry" />
        </mxCell>
        <mxCell id="vm16YK44oJi_Qf8WF7Tp-4" value="VLAN 1" style="rounded=0;whiteSpace=wrap;html=1;" parent="WQ6zJUxUwFgRDrmVzcBq-1" vertex="1">
          <mxGeometry x="-440" y="480" width="50" height="30" as="geometry" />
        </mxCell>
        <mxCell id="vm16YK44oJi_Qf8WF7Tp-10" value="Switch" style="rounded=0;whiteSpace=wrap;html=1;" parent="WQ6zJUxUwFgRDrmVzcBq-1" vertex="1">
          <mxGeometry x="440" y="945" width="60" height="30" as="geometry" />
        </mxCell>
        <mxCell id="JqiePsJtSWKBTMCCakV0-12" value="VLAN 19" style="rounded=0;whiteSpace=wrap;html=1;" parent="WQ6zJUxUwFgRDrmVzcBq-1" vertex="1">
          <mxGeometry x="-490" y="1340" width="80" height="20" as="geometry" />
        </mxCell>
        <mxCell id="JqiePsJtSWKBTMCCakV0-13" value="VLAN 59" style="rounded=0;whiteSpace=wrap;html=1;" parent="WQ6zJUxUwFgRDrmVzcBq-1" vertex="1">
          <mxGeometry x="790" y="1340" width="80" height="20" as="geometry" />
        </mxCell>
        <mxCell id="JqiePsJtSWKBTMCCakV0-14" value="VLAN 39" style="rounded=0;whiteSpace=wrap;html=1;" parent="WQ6zJUxUwFgRDrmVzcBq-1" vertex="1">
          <mxGeometry x="140" y="1340" width="80" height="20" as="geometry" />
        </mxCell>
        <mxCell id="JqiePsJtSWKBTMCCakV0-15" value="it.ukrtb.ru" style="rounded=0;whiteSpace=wrap;html=1;" parent="WQ6zJUxUwFgRDrmVzcBq-1" vertex="1">
          <mxGeometry x="-890" y="195" width="52" height="30" as="geometry" />
        </mxCell>
        <mxCell id="JqiePsJtSWKBTMCCakV0-22" value="308" style="rounded=0;whiteSpace=wrap;html=1;" parent="WQ6zJUxUwFgRDrmVzcBq-1" vertex="1">
          <mxGeometry x="-430" y="165" width="50" height="30" as="geometry" />
        </mxCell>
        <mxCell id="JqiePsJtSWKBTMCCakV0-23" value="318" style="rounded=0;whiteSpace=wrap;html=1;" parent="WQ6zJUxUwFgRDrmVzcBq-1" vertex="1">
          <mxGeometry x="220" y="160" width="50" height="30" as="geometry" />
        </mxCell>
        <mxCell id="JqiePsJtSWKBTMCCakV0-24" value="322" style="rounded=0;whiteSpace=wrap;html=1;" parent="WQ6zJUxUwFgRDrmVzcBq-1" vertex="1">
          <mxGeometry x="920" y="165" width="50" height="30" as="geometry" />
        </mxCell>
        <mxCell id="JqiePsJtSWKBTMCCakV0-25" value="nsa.it.ukrtb.ru" style="rounded=0;whiteSpace=wrap;html=1;" parent="WQ6zJUxUwFgRDrmVzcBq-1" vertex="1">
          <mxGeometry x="-530" y="960" width="80" height="30" as="geometry" />
        </mxCell>
        <mxCell id="JqiePsJtSWKBTMCCakV0-26" value="cs.it.ukrtb.ru" style="rounded=0;whiteSpace=wrap;html=1;" parent="WQ6zJUxUwFgRDrmVzcBq-1" vertex="1">
          <mxGeometry x="100" y="960" width="80" height="30" as="geometry" />
        </mxCell>
        <mxCell id="JqiePsJtSWKBTMCCakV0-27" value="is.it.ukrtb.ru" style="rounded=0;whiteSpace=wrap;html=1;" parent="WQ6zJUxUwFgRDrmVzcBq-1" vertex="1">
          <mxGeometry x="750" y="960" width="80" height="30" as="geometry" />
        </mxCell>
      </root>
    </mxGraphModel>
  </diagram>
  <diagram name="idea" id="Olwy0AcqLXnZPuE4ra3k">
    <mxGraphModel dx="1422" dy="799" grid="0" gridSize="10" guides="1" tooltips="1" connect="1" arrows="1" fold="1" page="1" pageScale="1" pageWidth="1654" pageHeight="1169" math="0" shadow="0">
      <root>
        <mxCell id="MVWlJ9_kBqvethQqgPu5-0" />
        <mxCell id="MVWlJ9_kBqvethQqgPu5-1" parent="MVWlJ9_kBqvethQqgPu5-0" />
        <mxCell id="ZMAeL8Xl4kPRWraZuNW1-0" value="" style="shape=mxgraph.cisco.computers_and_peripherals.pc;html=1;pointerEvents=1;dashed=0;fillColor=#036897;strokeColor=#ffffff;strokeWidth=2;verticalLabelPosition=bottom;verticalAlign=top;align=center;outlineConnect=0;rounded=0;" parent="MVWlJ9_kBqvethQqgPu5-1" vertex="1">
          <mxGeometry x="840" y="640" width="80" height="81" as="geometry" />
        </mxCell>
        <mxCell id="ZMAeL8Xl4kPRWraZuNW1-1" style="rounded=0;orthogonalLoop=1;jettySize=auto;html=1;exitX=0.5;exitY=0;exitDx=0;exitDy=0;exitPerimeter=0;entryX=0.55;entryY=0.95;entryDx=0;entryDy=0;entryPerimeter=0;fontFamily=Times New Roman;fontSize=20;verticalAlign=middle;endArrow=none;endFill=0;" parent="MVWlJ9_kBqvethQqgPu5-1" source="ZMAeL8Xl4kPRWraZuNW1-3" target="ZMAeL8Xl4kPRWraZuNW1-6" edge="1">
          <mxGeometry relative="1" as="geometry" />
        </mxCell>
        <mxCell id="ZMAeL8Xl4kPRWraZuNW1-2" style="edgeStyle=none;rounded=0;orthogonalLoop=1;jettySize=auto;html=1;exitX=0.5;exitY=1;exitDx=0;exitDy=0;exitPerimeter=0;fontFamily=Times New Roman;fontSize=20;endArrow=none;endFill=0;" parent="MVWlJ9_kBqvethQqgPu5-1" source="ZMAeL8Xl4kPRWraZuNW1-3" target="ZMAeL8Xl4kPRWraZuNW1-12" edge="1">
          <mxGeometry relative="1" as="geometry" />
        </mxCell>
        <mxCell id="ZMAeL8Xl4kPRWraZuNW1-3" value="" style="shape=mxgraph.cisco.routers.router;html=1;pointerEvents=1;dashed=0;fillColor=#036897;strokeColor=#ffffff;strokeWidth=2;verticalLabelPosition=bottom;verticalAlign=top;align=center;outlineConnect=0;rounded=0;" parent="MVWlJ9_kBqvethQqgPu5-1" vertex="1">
          <mxGeometry x="752" y="399" width="78" height="40" as="geometry" />
        </mxCell>
        <mxCell id="pojnCRHbs67Wcxka7YfC-4" style="edgeStyle=orthogonalEdgeStyle;rounded=0;orthogonalLoop=1;jettySize=auto;html=1;exitX=0.5;exitY=0;exitDx=0;exitDy=0;exitPerimeter=0;entryX=0.5;entryY=1;entryDx=0;entryDy=0;entryPerimeter=0;endArrow=none;endFill=0;" parent="MVWlJ9_kBqvethQqgPu5-1" source="ZMAeL8Xl4kPRWraZuNW1-5" target="pojnCRHbs67Wcxka7YfC-0" edge="1">
          <mxGeometry relative="1" as="geometry">
            <Array as="points">
              <mxPoint x="600" y="625" />
              <mxPoint x="670" y="625" />
            </Array>
          </mxGeometry>
        </mxCell>
        <mxCell id="ZMAeL8Xl4kPRWraZuNW1-5" value="" style="shape=mxgraph.cisco.servers.standard_host;html=1;pointerEvents=1;dashed=0;fillColor=#036897;strokeColor=#ffffff;strokeWidth=2;verticalLabelPosition=bottom;verticalAlign=top;align=center;outlineConnect=0;rounded=0;" parent="MVWlJ9_kBqvethQqgPu5-1" vertex="1">
          <mxGeometry x="560" y="640" width="80" height="80" as="geometry" />
        </mxCell>
        <mxCell id="ZMAeL8Xl4kPRWraZuNW1-6" value="" style="ellipse;shape=cloud;whiteSpace=wrap;html=1;rounded=0;" parent="MVWlJ9_kBqvethQqgPu5-1" vertex="1">
          <mxGeometry x="736" y="279" width="101" height="80" as="geometry" />
        </mxCell>
        <mxCell id="ZMAeL8Xl4kPRWraZuNW1-12" value="" style="shape=mxgraph.cisco.hubs_and_gateways.small_hub;html=1;pointerEvents=1;dashed=0;fillColor=#036897;strokeColor=#ffffff;strokeWidth=2;verticalLabelPosition=bottom;verticalAlign=top;align=center;outlineConnect=0;rounded=0;" parent="MVWlJ9_kBqvethQqgPu5-1" vertex="1">
          <mxGeometry x="746" y="479" width="90" height="45" as="geometry" />
        </mxCell>
        <mxCell id="ZMAeL8Xl4kPRWraZuNW1-14" value="" style="shape=mxgraph.cisco.servers.standard_host;html=1;pointerEvents=1;dashed=0;fillColor=#036897;strokeColor=#ffffff;strokeWidth=2;verticalLabelPosition=bottom;verticalAlign=top;align=center;outlineConnect=0;rounded=0;" parent="MVWlJ9_kBqvethQqgPu5-1" vertex="1">
          <mxGeometry x="680" y="640" width="80" height="80" as="geometry" />
        </mxCell>
        <mxCell id="ZMAeL8Xl4kPRWraZuNW1-15" value="Глобальная сеть Интернет" style="text;html=1;align=left;verticalAlign=middle;resizable=0;points=[];autosize=1;strokeColor=none;fillColor=none;fontFamily=Times New Roman;fontSize=20;rounded=0;" parent="MVWlJ9_kBqvethQqgPu5-1" vertex="1">
          <mxGeometry x="857" y="304" width="240" height="30" as="geometry" />
        </mxCell>
        <mxCell id="ZMAeL8Xl4kPRWraZuNW1-16" value="pfsense" style="text;html=1;align=left;verticalAlign=middle;resizable=0;points=[];autosize=1;strokeColor=none;fillColor=none;fontFamily=Times New Roman;fontSize=20;rounded=0;" parent="MVWlJ9_kBqvethQqgPu5-1" vertex="1">
          <mxGeometry x="857" y="399" width="80" height="30" as="geometry" />
        </mxCell>
        <mxCell id="ZMAeL8Xl4kPRWraZuNW1-17" value="Коммутатор" style="text;html=1;align=left;verticalAlign=middle;resizable=0;points=[];autosize=1;strokeColor=none;fillColor=none;fontFamily=Times New Roman;fontSize=20;rounded=0;" parent="MVWlJ9_kBqvethQqgPu5-1" vertex="1">
          <mxGeometry x="857" y="480" width="120" height="30" as="geometry" />
        </mxCell>
        <mxCell id="ZMAeL8Xl4kPRWraZuNW1-18" value="Рабочие станции" style="text;html=1;align=left;verticalAlign=middle;resizable=0;points=[];autosize=1;strokeColor=none;fillColor=none;fontFamily=Times New Roman;fontSize=20;rounded=0;" parent="MVWlJ9_kBqvethQqgPu5-1" vertex="1">
          <mxGeometry x="870" y="730" width="160" height="30" as="geometry" />
        </mxCell>
        <mxCell id="ZMAeL8Xl4kPRWraZuNW1-19" value="Сервера" style="text;html=1;align=left;verticalAlign=middle;resizable=0;points=[];autosize=1;strokeColor=none;fillColor=none;fontFamily=Times New Roman;fontSize=20;rounded=0;" parent="MVWlJ9_kBqvethQqgPu5-1" vertex="1">
          <mxGeometry x="630" y="731" width="80" height="28" as="geometry" />
        </mxCell>
        <mxCell id="ZMAeL8Xl4kPRWraZuNW1-22" value="" style="shape=mxgraph.cisco.computers_and_peripherals.pc;html=1;pointerEvents=1;dashed=0;fillColor=#036897;strokeColor=#ffffff;strokeWidth=2;verticalLabelPosition=bottom;verticalAlign=top;align=center;outlineConnect=0;rounded=0;" parent="MVWlJ9_kBqvethQqgPu5-1" vertex="1">
          <mxGeometry x="960" y="640" width="80" height="81" as="geometry" />
        </mxCell>
        <mxCell id="ZMAeL8Xl4kPRWraZuNW1-24" style="edgeStyle=orthogonalEdgeStyle;rounded=0;orthogonalLoop=1;jettySize=auto;html=1;exitX=0;exitY=0.5;exitDx=0;exitDy=0;exitPerimeter=0;entryX=0.5;entryY=1;entryDx=0;entryDy=0;entryPerimeter=0;endArrow=none;endFill=0;" parent="MVWlJ9_kBqvethQqgPu5-1" source="ZMAeL8Xl4kPRWraZuNW1-23" target="ZMAeL8Xl4kPRWraZuNW1-12" edge="1">
          <mxGeometry relative="1" as="geometry" />
        </mxCell>
        <mxCell id="ZMAeL8Xl4kPRWraZuNW1-25" style="edgeStyle=orthogonalEdgeStyle;rounded=0;orthogonalLoop=1;jettySize=auto;html=1;exitX=0.5;exitY=1;exitDx=0;exitDy=0;exitPerimeter=0;endArrow=none;endFill=0;" parent="MVWlJ9_kBqvethQqgPu5-1" source="ZMAeL8Xl4kPRWraZuNW1-23" target="ZMAeL8Xl4kPRWraZuNW1-0" edge="1">
          <mxGeometry relative="1" as="geometry" />
        </mxCell>
        <mxCell id="ZMAeL8Xl4kPRWraZuNW1-26" style="edgeStyle=orthogonalEdgeStyle;rounded=0;orthogonalLoop=1;jettySize=auto;html=1;exitX=0.5;exitY=1;exitDx=0;exitDy=0;exitPerimeter=0;endArrow=none;endFill=0;" parent="MVWlJ9_kBqvethQqgPu5-1" source="ZMAeL8Xl4kPRWraZuNW1-23" target="ZMAeL8Xl4kPRWraZuNW1-22" edge="1">
          <mxGeometry relative="1" as="geometry" />
        </mxCell>
        <mxCell id="ZMAeL8Xl4kPRWraZuNW1-23" value="" style="shape=mxgraph.cisco.hubs_and_gateways.small_hub;html=1;pointerEvents=1;dashed=0;fillColor=#036897;strokeColor=#ffffff;strokeWidth=2;verticalLabelPosition=bottom;verticalAlign=top;align=center;outlineConnect=0;rounded=0;" parent="MVWlJ9_kBqvethQqgPu5-1" vertex="1">
          <mxGeometry x="897" y="560" width="90" height="45" as="geometry" />
        </mxCell>
        <mxCell id="ZMAeL8Xl4kPRWraZuNW1-27" value="Коммутатор" style="text;html=1;align=left;verticalAlign=middle;resizable=0;points=[];autosize=1;strokeColor=none;fillColor=none;fontFamily=Times New Roman;fontSize=20;rounded=0;" parent="MVWlJ9_kBqvethQqgPu5-1" vertex="1">
          <mxGeometry x="1010" y="560" width="120" height="30" as="geometry" />
        </mxCell>
        <mxCell id="pojnCRHbs67Wcxka7YfC-2" style="edgeStyle=orthogonalEdgeStyle;rounded=0;orthogonalLoop=1;jettySize=auto;html=1;exitX=0.5;exitY=1;exitDx=0;exitDy=0;exitPerimeter=0;entryX=0.5;entryY=0;entryDx=0;entryDy=0;entryPerimeter=0;endArrow=none;endFill=0;" parent="MVWlJ9_kBqvethQqgPu5-1" source="pojnCRHbs67Wcxka7YfC-0" target="ZMAeL8Xl4kPRWraZuNW1-14" edge="1">
          <mxGeometry relative="1" as="geometry" />
        </mxCell>
        <mxCell id="pojnCRHbs67Wcxka7YfC-3" style="edgeStyle=orthogonalEdgeStyle;rounded=0;orthogonalLoop=1;jettySize=auto;html=1;exitX=0.99;exitY=0.5;exitDx=0;exitDy=0;exitPerimeter=0;entryX=0.5;entryY=1;entryDx=0;entryDy=0;entryPerimeter=0;endArrow=none;endFill=0;" parent="MVWlJ9_kBqvethQqgPu5-1" source="pojnCRHbs67Wcxka7YfC-0" target="ZMAeL8Xl4kPRWraZuNW1-12" edge="1">
          <mxGeometry relative="1" as="geometry" />
        </mxCell>
        <mxCell id="pojnCRHbs67Wcxka7YfC-0" value="" style="shape=mxgraph.cisco.hubs_and_gateways.small_hub;html=1;pointerEvents=1;dashed=0;fillColor=#036897;strokeColor=#ffffff;strokeWidth=2;verticalLabelPosition=bottom;verticalAlign=top;align=center;outlineConnect=0;rounded=0;" parent="MVWlJ9_kBqvethQqgPu5-1" vertex="1">
          <mxGeometry x="625" y="560" width="90" height="45" as="geometry" />
        </mxCell>
        <mxCell id="pojnCRHbs67Wcxka7YfC-5" value="Коммутатор" style="text;html=1;align=left;verticalAlign=middle;resizable=0;points=[];autosize=1;strokeColor=none;fillColor=none;fontFamily=Times New Roman;fontSize=20;rounded=0;" parent="MVWlJ9_kBqvethQqgPu5-1" vertex="1">
          <mxGeometry x="490" y="567.5" width="120" height="30" as="geometry" />
        </mxCell>
      </root>
    </mxGraphModel>
  </diagram>
  <diagram name="DLP" id="1gVBCkmwxPaSmKnPZcv9">
    <mxGraphModel dx="1422" dy="799" grid="0" gridSize="10" guides="1" tooltips="1" connect="1" arrows="1" fold="1" page="1" pageScale="1" pageWidth="1654" pageHeight="1169" math="0" shadow="0">
      <root>
        <mxCell id="0w55Ot9ll7KbU6rwqELl-0" />
        <mxCell id="0w55Ot9ll7KbU6rwqELl-1" parent="0w55Ot9ll7KbU6rwqELl-0" />
        <mxCell id="yKlm2r5mx678ztukkDNO-7" style="edgeStyle=orthogonalEdgeStyle;rounded=0;orthogonalLoop=1;jettySize=auto;html=1;exitX=0.83;exitY=0.5;exitDx=0;exitDy=0;exitPerimeter=0;endArrow=none;endFill=0;" edge="1" parent="0w55Ot9ll7KbU6rwqELl-1" source="0w55Ot9ll7KbU6rwqELl-2" target="yKlm2r5mx678ztukkDNO-0">
          <mxGeometry relative="1" as="geometry" />
        </mxCell>
        <mxCell id="0w55Ot9ll7KbU6rwqELl-2" value="" style="shape=mxgraph.cisco.computers_and_peripherals.pc;html=1;pointerEvents=1;dashed=0;fillColor=#036897;strokeColor=#ffffff;strokeWidth=2;verticalLabelPosition=bottom;verticalAlign=top;align=center;outlineConnect=0;rounded=0;" parent="0w55Ot9ll7KbU6rwqELl-1" vertex="1">
          <mxGeometry x="388" y="777" width="80" height="81" as="geometry" />
        </mxCell>
        <mxCell id="CNaHn6UPQa2yhHd6UB4N-51" value="&lt;font color=&quot;#333333&quot;&gt;&lt;span style=&quot;background-color: rgb(255, 255, 255);&quot;&gt;PC 1&lt;/span&gt;&lt;/font&gt;" style="text;html=1;align=center;verticalAlign=middle;resizable=0;points=[];autosize=1;strokeColor=none;fillColor=none;fontFamily=Times New Roman;fontSize=20;rounded=0;" parent="0w55Ot9ll7KbU6rwqELl-1" vertex="1">
          <mxGeometry x="396.5" y="858" width="57" height="36" as="geometry" />
        </mxCell>
        <mxCell id="yKlm2r5mx678ztukkDNO-8" style="edgeStyle=orthogonalEdgeStyle;rounded=0;orthogonalLoop=1;jettySize=auto;html=1;exitX=0.83;exitY=0.5;exitDx=0;exitDy=0;exitPerimeter=0;entryX=0.16;entryY=0.5;entryDx=0;entryDy=0;entryPerimeter=0;endArrow=none;endFill=0;" edge="1" parent="0w55Ot9ll7KbU6rwqELl-1" source="yKlm2r5mx678ztukkDNO-0" target="yKlm2r5mx678ztukkDNO-2">
          <mxGeometry relative="1" as="geometry" />
        </mxCell>
        <mxCell id="yKlm2r5mx678ztukkDNO-0" value="" style="shape=mxgraph.cisco.computers_and_peripherals.pc;html=1;pointerEvents=1;dashed=0;fillColor=#036897;strokeColor=#ffffff;strokeWidth=2;verticalLabelPosition=bottom;verticalAlign=top;align=center;outlineConnect=0;rounded=0;" vertex="1" parent="0w55Ot9ll7KbU6rwqELl-1">
          <mxGeometry x="559" y="777" width="80" height="81" as="geometry" />
        </mxCell>
        <mxCell id="yKlm2r5mx678ztukkDNO-1" value="&lt;font color=&quot;#333333&quot;&gt;&lt;span style=&quot;background-color: rgb(255, 255, 255);&quot;&gt;PC 2&lt;/span&gt;&lt;/font&gt;" style="text;html=1;align=center;verticalAlign=middle;resizable=0;points=[];autosize=1;strokeColor=none;fillColor=none;fontFamily=Times New Roman;fontSize=20;rounded=0;" vertex="1" parent="0w55Ot9ll7KbU6rwqELl-1">
          <mxGeometry x="567.5" y="858" width="57" height="36" as="geometry" />
        </mxCell>
        <mxCell id="yKlm2r5mx678ztukkDNO-9" style="edgeStyle=orthogonalEdgeStyle;rounded=0;orthogonalLoop=1;jettySize=auto;html=1;exitX=0.83;exitY=0.5;exitDx=0;exitDy=0;exitPerimeter=0;endArrow=none;endFill=0;" edge="1" parent="0w55Ot9ll7KbU6rwqELl-1" source="yKlm2r5mx678ztukkDNO-2" target="yKlm2r5mx678ztukkDNO-4">
          <mxGeometry relative="1" as="geometry" />
        </mxCell>
        <mxCell id="yKlm2r5mx678ztukkDNO-2" value="" style="shape=mxgraph.cisco.computers_and_peripherals.pc;html=1;pointerEvents=1;dashed=0;fillColor=#036897;strokeColor=#ffffff;strokeWidth=2;verticalLabelPosition=bottom;verticalAlign=top;align=center;outlineConnect=0;rounded=0;" vertex="1" parent="0w55Ot9ll7KbU6rwqELl-1">
          <mxGeometry x="773" y="777" width="80" height="81" as="geometry" />
        </mxCell>
        <mxCell id="yKlm2r5mx678ztukkDNO-3" value="&lt;font color=&quot;#333333&quot;&gt;&lt;span style=&quot;background-color: rgb(255, 255, 255);&quot;&gt;PC 3&lt;/span&gt;&lt;/font&gt;" style="text;html=1;align=center;verticalAlign=middle;resizable=0;points=[];autosize=1;strokeColor=none;fillColor=none;fontFamily=Times New Roman;fontSize=20;rounded=0;" vertex="1" parent="0w55Ot9ll7KbU6rwqELl-1">
          <mxGeometry x="781.5" y="858" width="57" height="36" as="geometry" />
        </mxCell>
        <mxCell id="yKlm2r5mx678ztukkDNO-4" value="" style="shape=mxgraph.cisco.computers_and_peripherals.pc;html=1;pointerEvents=1;dashed=0;fillColor=#036897;strokeColor=#ffffff;strokeWidth=2;verticalLabelPosition=bottom;verticalAlign=top;align=center;outlineConnect=0;rounded=0;" vertex="1" parent="0w55Ot9ll7KbU6rwqELl-1">
          <mxGeometry x="965" y="777" width="80" height="81" as="geometry" />
        </mxCell>
        <mxCell id="yKlm2r5mx678ztukkDNO-5" value="&lt;font color=&quot;#333333&quot;&gt;&lt;span style=&quot;background-color: rgb(255, 255, 255);&quot;&gt;PC 4&lt;/span&gt;&lt;/font&gt;" style="text;html=1;align=center;verticalAlign=middle;resizable=0;points=[];autosize=1;strokeColor=none;fillColor=none;fontFamily=Times New Roman;fontSize=20;rounded=0;" vertex="1" parent="0w55Ot9ll7KbU6rwqELl-1">
          <mxGeometry x="973.5" y="858" width="57" height="36" as="geometry" />
        </mxCell>
      </root>
    </mxGraphModel>
  </diagram>
  <diagram id="pxBiHpuBxFrCq0TO4okR" name="Page-6">
    <mxGraphModel dx="1422" dy="799" grid="1" gridSize="10" guides="1" tooltips="1" connect="1" arrows="1" fold="1" page="1" pageScale="1" pageWidth="1654" pageHeight="1169" math="0" shadow="0">
      <root>
        <mxCell id="0" />
        <mxCell id="1" parent="0" />
        <mxCell id="wH8UdLURLXnjkFqjkypf-2" style="edgeStyle=orthogonalEdgeStyle;rounded=0;orthogonalLoop=1;jettySize=auto;html=1;exitX=0;exitY=0.5;exitDx=0;exitDy=0;exitPerimeter=0;fontFamily=Helvetica;fontSize=20;" parent="1" source="FkCkxxUv1KnuiOszfNSj-2" target="wH8UdLURLXnjkFqjkypf-1" edge="1">
          <mxGeometry relative="1" as="geometry" />
        </mxCell>
        <mxCell id="FkCkxxUv1KnuiOszfNSj-2" value="" style="shape=mxgraph.cisco.routers.router;html=1;pointerEvents=1;dashed=0;fillColor=#036897;strokeColor=#ffffff;strokeWidth=2;verticalLabelPosition=bottom;verticalAlign=top;align=center;outlineConnect=0;rounded=0;" parent="1" vertex="1">
          <mxGeometry x="752" y="399" width="78" height="40" as="geometry" />
        </mxCell>
        <mxCell id="FkCkxxUv1KnuiOszfNSj-4" value="&lt;p&gt;&lt;span style=&quot;color: rgb(53, 60, 65); background-color: rgb(255, 255, 255);&quot;&gt;&lt;font style=&quot;font-size: 20px;&quot; face=&quot;Helvetica&quot;&gt;keenetic&lt;/font&gt;&lt;/span&gt;&lt;/p&gt;" style="text;html=1;align=left;verticalAlign=middle;resizable=0;points=[];autosize=1;strokeColor=none;fillColor=none;fontFamily=Times New Roman;fontSize=20;rounded=0;" parent="1" vertex="1">
          <mxGeometry x="836" y="379" width="100" height="80" as="geometry" />
        </mxCell>
        <mxCell id="wH8UdLURLXnjkFqjkypf-1" value="" style="rounded=0;whiteSpace=wrap;html=1;fillColor=#d5e8d4;strokeColor=#82b366;gradientColor=#97d077;" parent="1" vertex="1">
          <mxGeometry x="640" y="490" width="120" height="70" as="geometry" />
        </mxCell>
        <mxCell id="wH8UdLURLXnjkFqjkypf-3" value="&lt;p&gt;&lt;span style=&quot;color: rgb(53, 60, 65); background-color: rgb(255, 255, 255);&quot;&gt;&lt;font style=&quot;font-size: 20px;&quot; face=&quot;Helvetica&quot;&gt;Storage&lt;/font&gt;&lt;/span&gt;&lt;/p&gt;" style="text;html=1;align=left;verticalAlign=middle;resizable=0;points=[];autosize=1;strokeColor=none;fillColor=none;fontFamily=Times New Roman;fontSize=20;rounded=0;" parent="1" vertex="1">
          <mxGeometry x="660" y="480" width="90" height="80" as="geometry" />
        </mxCell>
        <mxCell id="wH8UdLURLXnjkFqjkypf-4" value="Диск будет монтироваться при запуске {запускается скрипт, который находится в автозагрузке, он монтирует внешний storage}" style="rounded=0;whiteSpace=wrap;html=1;fontFamily=Helvetica;fontSize=20;" parent="1" vertex="1">
          <mxGeometry x="390" y="280" width="310" height="139" as="geometry" />
        </mxCell>
      </root>
    </mxGraphModel>
  </diagram>
</mxfile>
